<svg version="1.1" id="Layer_1" xmlns="http://www.w3.org/2000/svg" xmlns:xlink="http://www.w3.org/1999/xlink" x="0px" y="0px"
	 width="100%" viewBox="0 0 512 512" enable-background="new 0 0 512 512" xml:space="preserve">
<path fill="#1877F2" opacity="1.000000" stroke="none" 
	d="
M225.000000,0.999996 
	C246.020889,1.000000 267.041779,1.000000 288.335693,1.404125 
	C289.284424,2.197518 289.916473,2.790105 290.642303,2.946002 
	C304.752838,5.976783 319.041992,8.337288 332.951599,12.102073 
	C350.727203,16.913233 367.432739,24.535751 383.461395,33.722794 
	C400.257843,43.349930 415.945923,54.447754 430.034180,67.674217 
	C437.630524,74.805862 444.643494,82.576607 451.704987,90.256386 
	C464.696503,104.385323 475.139130,120.344284 483.994598,137.286667 
	C498.118042,164.307678 507.813171,192.792343 511.090881,223.275360 
	C511.159241,223.911301 512.338806,224.427780 513.000000,225.000000 
	C513.000000,246.020889 513.000000,267.041779 512.598145,288.344421 
	C511.804871,289.301605 511.208649,289.932983 511.052429,290.659027 
	C508.047180,304.626831 505.634308,318.748291 501.996796,332.547455 
	C497.080963,351.196259 489.480896,368.954071 479.123169,385.187500 
	C469.847473,399.725098 459.795197,413.880280 448.886871,427.224335 
	C441.277374,436.532928 431.825531,444.386383 422.873810,452.535187 
	C408.545715,465.578064 392.509277,476.465912 375.120544,484.728149 
	C358.749512,492.506775 341.567383,498.723083 324.391479,504.602539 
	C315.716339,507.572083 306.265472,508.275482 297.095490,509.539307 
	C297.025635,449.828491 297.025635,390.581879 297.025635,330.837646 
	C317.326904,330.837646 337.062683,330.837646 356.772064,330.837646 
	C360.574249,306.086945 364.301056,281.826691 368.130066,256.901367 
	C344.269043,256.901367 320.730621,256.901367 297.058350,256.901367 
	C297.058350,239.456207 296.631378,222.627106 297.170685,205.829010 
	C297.790192,186.532288 308.681335,173.336594 326.650879,170.353455 
	C335.438904,168.894562 344.548645,169.300049 353.517853,169.032394 
	C359.272003,168.860672 365.035400,169.000183 370.841980,169.000183 
	C370.841980,147.671600 370.841980,127.045425 370.841980,106.258575 
	C369.830658,105.926270 368.924713,105.462616 367.974945,105.340797 
	C343.874817,102.249535 319.731873,98.916756 295.412537,102.153259 
	C276.955414,104.609596 260.107971,111.257133 246.158340,124.106682 
	C225.598785,143.044876 218.012436,167.501221 217.124405,194.416626 
	C216.498428,213.389267 217.001068,232.399155 216.999832,251.392410 
	C216.999725,253.159271 216.999817,254.926147 216.999817,257.193542 
	C194.997726,257.193542 173.608749,257.193542 152.393433,257.193542 
	C152.393433,282.090057 152.393433,306.474945 152.393433,331.187103 
	C174.054260,331.187103 195.322922,331.187103 217.002823,331.187103 
	C217.002823,390.957733 217.002823,450.396179 216.577911,509.904724 
	C209.901917,508.898224 203.551132,508.218109 197.417099,506.675903 
	C171.930023,500.267883 147.776337,490.685303 125.115860,477.130341 
	C97.667801,460.711578 74.297157,439.725342 54.584854,414.821320 
	C41.760086,398.618835 31.173197,380.884857 22.804199,361.781128 
	C12.878545,339.124054 5.914960,315.794159 2.922300,291.252686 
	C2.822688,290.435822 1.664664,289.747986 1.000001,289.000000 
	C1.000000,267.645782 1.000000,246.291550 1.398871,224.669968 
	C2.190606,223.728241 2.821671,223.092850 2.939350,222.373459 
	C4.070479,215.458633 4.635897,208.414398 6.268773,201.624985 
	C12.759149,174.638412 22.467989,148.969696 36.875172,125.041008 
	C52.147228,99.675865 71.287132,77.710327 93.870300,58.870354 
	C112.036240,43.715439 132.083832,31.283897 153.983185,21.943975 
	C176.084641,12.517856 198.828918,5.660384 222.756805,2.921229 
	C223.567230,2.828455 224.255035,1.664599 225.000000,0.999996 
z"/>
<path fill="#FFFFFF" opacity="1.000000" stroke="none" 
	d="
M217.002823,509.834595 
	C217.002823,450.396179 217.002823,390.957733 217.002823,331.187103 
	C195.322922,331.187103 174.054260,331.187103 152.393433,331.187103 
	C152.393433,306.474945 152.393433,282.090057 152.393433,257.193542 
	C173.608749,257.193542 194.997726,257.193542 216.999817,257.193542 
	C216.999817,254.926147 216.999725,253.159271 216.999832,251.392410 
	C217.001068,232.399155 216.498428,213.389267 217.124405,194.416626 
	C218.012436,167.501221 225.598785,143.044876 246.158340,124.106682 
	C260.107971,111.257133 276.955414,104.609596 295.412537,102.153259 
	C319.731873,98.916756 343.874817,102.249535 367.974945,105.340797 
	C368.924713,105.462616 369.830658,105.926270 370.841980,106.258575 
	C370.841980,127.045425 370.841980,147.671600 370.841980,169.000183 
	C365.035400,169.000183 359.272003,168.860672 353.517853,169.032394 
	C344.548645,169.300049 335.438904,168.894562 326.650879,170.353455 
	C308.681335,173.336594 297.790192,186.532288 297.170685,205.829010 
	C296.631378,222.627106 297.058350,239.456207 297.058350,256.901367 
	C320.730621,256.901367 344.269043,256.901367 368.130066,256.901367 
	C364.301056,281.826691 360.574249,306.086945 356.772064,330.837646 
	C337.062683,330.837646 317.326904,330.837646 297.025635,330.837646 
	C297.025635,390.581879 297.025635,449.828491 296.887329,509.917236 
	C294.631714,510.845123 292.495422,510.800751 290.409760,511.104340 
	C289.859528,511.184418 289.465668,512.338867 289.000000,513.000000 
	C267.979095,513.000000 246.958206,513.000000 225.768646,512.649292 
	C222.734268,511.477234 219.868546,510.655914 217.002823,509.834595 
z"/>
<path fill="#000000" opacity="1.000000" stroke="none" 
	d="
M289.468628,513.000000 
	C289.465668,512.338867 289.859528,511.184418 290.409760,511.104340 
	C292.495422,510.800751 294.631714,510.845123 296.957214,510.381409 
	C306.265472,508.275482 315.716339,507.572083 324.391479,504.602539 
	C341.567383,498.723083 358.749512,492.506775 375.120544,484.728149 
	C392.509277,476.465912 408.545715,465.578064 422.873810,452.535187 
	C431.825531,444.386383 441.277374,436.532928 448.886871,427.224335 
	C459.795197,413.880280 469.847473,399.725098 479.123169,385.187500 
	C489.480896,368.954071 497.080963,351.196259 501.996796,332.547455 
	C505.634308,318.748291 508.047180,304.626831 511.052429,290.659027 
	C511.208649,289.932983 511.804871,289.301605 512.598145,288.813080 
	C513.000000,363.593719 513.000000,438.187408 513.000000,513.000000 
	C438.645905,513.000000 364.291626,513.000000 289.468628,513.000000 
z"/>
<path fill="#000000" opacity="1.000000" stroke="none" 
	d="
M216.577911,509.904724 
	C219.868546,510.655914 222.734268,511.477234 225.299988,512.649292 
	C150.406296,513.000000 75.812599,513.000000 1.000000,513.000000 
	C1.000000,438.645905 1.000000,364.291626 1.000001,289.468658 
	C1.664664,289.747986 2.822688,290.435822 2.922300,291.252686 
	C5.914960,315.794159 12.878545,339.124054 22.804199,361.781128 
	C31.173197,380.884857 41.760086,398.618835 54.584854,414.821320 
	C74.297157,439.725342 97.667801,460.711578 125.115860,477.130341 
	C147.776337,490.685303 171.930023,500.267883 197.417099,506.675903 
	C203.551132,508.218109 209.901917,508.898224 216.577911,509.904724 
z"/>
<path fill="#000000" opacity="1.000000" stroke="none" 
	d="
M513.000000,224.531342 
	C512.338806,224.427780 511.159241,223.911301 511.090881,223.275360 
	C507.813171,192.792343 498.118042,164.307678 483.994598,137.286667 
	C475.139130,120.344284 464.696503,104.385323 451.704987,90.256386 
	C444.643494,82.576607 437.630524,74.805862 430.034180,67.674217 
	C415.945923,54.447754 400.257843,43.349930 383.461395,33.722794 
	C367.432739,24.535751 350.727203,16.913233 332.951599,12.102073 
	C319.041992,8.337288 304.752838,5.976783 290.642303,2.946002 
	C289.916473,2.790105 289.284424,2.197518 288.804352,1.404125 
	C363.593719,1.000000 438.187408,1.000000 513.000000,1.000000 
	C513.000000,75.354088 513.000000,149.708389 513.000000,224.531342 
z"/>
<path fill="#000000" opacity="1.000000" stroke="none" 
	d="
M224.531342,0.999996 
	C224.255035,1.664599 223.567230,2.828455 222.756805,2.921229 
	C198.828918,5.660384 176.084641,12.517856 153.983185,21.943975 
	C132.083832,31.283897 112.036240,43.715439 93.870300,58.870354 
	C71.287132,77.710327 52.147228,99.675865 36.875172,125.041008 
	C22.467989,148.969696 12.759149,174.638412 6.268773,201.624985 
	C4.635897,208.414398 4.070479,215.458633 2.939350,222.373459 
	C2.821671,223.092850 2.190606,223.728241 1.398871,224.201309 
	C1.000000,149.739456 1.000000,75.478920 1.000000,1.000000 
	C75.354088,1.000000 149.708389,1.000000 224.531342,0.999996 
z"/>
</svg>