<svg version="1.1" id="Layer_1" xmlns="http://www.w3.org/2000/svg" xmlns:xlink="http://www.w3.org/1999/xlink" x="0px" y="0px"
	 width="100%" viewBox="0 0 512 512" enable-background="new 0 0 512 512" xml:space="preserve">
<path fill="#000000" opacity="1.000000" stroke="none" 
	d="
M1.000000,173.000000 
	C1.000000,115.333336 1.000000,58.166668 1.000000,1.000000 
	C171.666672,1.000000 342.333344,1.000000 513.000000,1.000000 
	C513.000000,171.666672 513.000000,342.333344 513.000000,513.000000 
	C342.333344,513.000000 171.666672,513.000000 1.000000,513.000000 
	C1.000000,399.833344 1.000000,286.666656 1.000000,173.000000 
M378.689178,446.819031 
	C381.369141,445.087524 384.049103,443.356018 387.236359,441.189545 
	C389.528992,439.473907 391.821625,437.758301 394.727966,435.777008 
	C397.187622,433.535614 399.647278,431.294189 402.800903,428.995270 
	C407.246521,425.013794 411.692169,421.032288 416.761169,416.788208 
	C420.188660,412.896118 423.616180,409.004028 427.676788,404.823456 
	C430.819946,400.565277 433.963104,396.307098 437.728882,391.775085 
	C440.857330,387.197205 443.985809,382.619324 447.728485,377.717010 
	C450.521667,372.494171 453.314850,367.271362 456.727356,361.715546 
	C459.850464,354.822906 462.973572,347.930237 466.730347,340.657745 
	C469.098083,333.438995 471.465790,326.220276 473.996399,318.219025 
	C475.346771,311.848999 476.697144,305.478973 478.736053,298.667572 
	C479.434906,292.445007 480.133728,286.222473 481.005310,279.169586 
	C481.281311,275.113403 481.557312,271.057190 481.972534,266.120850 
	C481.926086,263.746887 481.879669,261.372894 481.972290,258.099548 
	C481.926025,255.065964 481.879791,252.032394 481.972412,248.084961 
	C481.592743,243.723434 481.213104,239.361908 480.972290,234.113297 
	C480.259399,228.408401 479.546509,222.703522 478.943787,216.187531 
	C476.573425,207.124481 474.203033,198.061447 471.951691,188.233810 
	C470.319458,183.840744 468.756836,179.420319 467.043823,175.058975 
	C454.760590,143.785553 436.614532,116.565353 412.109894,93.391357 
	C399.179718,81.163315 385.251404,70.434235 369.898651,61.695728 
	C355.689270,53.608047 341.048187,46.182243 324.304718,41.811497 
	C315.203522,39.596706 306.102356,37.381916 296.167908,35.024254 
	C290.445068,34.405003 284.722260,33.785751 278.246094,32.764645 
	C273.831055,32.565231 269.416016,32.365818 264.101257,32.027573 
	C261.067810,32.073971 258.034332,32.120373 254.120743,32.027866 
	C251.746689,32.074123 249.372620,32.120380 246.095657,32.028072 
	C242.063690,32.407768 238.031738,32.787460 233.121094,33.028152 
	C227.046051,34.001472 220.971024,34.974789 214.048157,35.992336 
	C207.350082,37.624615 200.652008,39.256893 193.147934,40.983761 
	C186.416702,43.281921 179.685486,45.580078 172.206528,48.001610 
	C165.804062,51.056671 159.401596,54.111729 152.297256,57.250721 
	C146.849274,60.463905 141.401291,63.677086 135.312057,67.186836 
	C130.859497,70.421417 126.406944,73.655998 121.469612,77.011299 
	C121.469612,77.011299 120.995010,77.167313 120.465515,77.111748 
	C120.269699,77.395859 120.073883,77.679977 119.261688,78.238899 
	C115.473335,81.475662 111.684975,84.712418 107.286697,88.215080 
	C103.498596,91.773643 99.710495,95.332214 95.318626,99.221893 
	C94.244446,100.616959 93.220192,102.054138 92.086105,103.398689 
	C89.379333,106.607819 86.620758,109.773247 83.271927,113.220329 
	C81.498772,115.440742 79.725616,117.661156 77.327576,120.196541 
	C75.182938,123.447845 73.038300,126.699150 70.256126,130.236603 
	C68.225464,133.660583 66.194801,137.084564 63.649677,140.923264 
	C61.971630,143.990051 60.293579,147.056839 58.086716,150.659393 
	C56.355328,154.423203 54.623940,158.187012 52.262501,162.287292 
	C50.470428,166.843643 48.678360,171.399979 46.242970,176.312408 
	C44.811794,180.839828 43.380615,185.367249 41.270824,190.291367 
	C40.165630,195.157288 39.060436,200.023209 37.264187,205.299454 
	C36.564983,209.867447 35.865780,214.435440 34.786591,219.741425 
	C34.246708,224.495285 33.706829,229.249161 33.000576,234.828827 
	C32.722717,238.219559 32.444859,241.610291 32.023087,245.880386 
	C32.070969,248.254181 32.118851,250.627991 32.022308,253.900528 
	C32.070362,256.934570 32.118412,259.968628 32.022739,263.922028 
	C32.070019,268.280792 32.117302,272.639587 32.324654,277.810242 
	C33.180164,283.220184 34.035675,288.630096 34.989346,294.903625 
	C36.624348,302.283264 38.259354,309.662872 39.991783,317.845612 
	C43.955894,328.577484 47.920002,339.309326 52.001770,350.794678 
	C55.957684,358.360962 59.737438,366.025879 63.905571,373.473389 
	C73.056725,389.824402 85.151268,403.987579 98.060883,417.381226 
	C104.510635,424.072784 111.901260,429.930145 119.263489,435.653992 
	C133.611176,446.808624 149.065445,456.192322 165.964340,463.029541 
	C165.964340,463.029541 165.895004,463.049683 166.068039,463.546539 
	C166.370651,463.642151 166.673264,463.737762 167.662689,464.151154 
	C177.426956,467.477600 187.191238,470.804077 197.342300,474.817078 
	C204.881821,476.258240 212.421356,477.699402 220.395294,479.849884 
	C226.262695,480.511108 232.130096,481.172333 238.913895,481.982025 
	C242.941940,481.932587 246.970001,481.883118 251.896652,481.980896 
	C254.930527,481.931671 257.964417,481.882477 261.877380,481.979340 
	C264.251190,481.930573 266.625031,481.881805 269.879822,481.979095 
	C273.252258,481.597076 276.624695,481.215057 280.873077,480.979828 
	C285.269745,480.354065 289.666382,479.728302 294.919495,479.016663 
	C299.648926,478.026917 304.378326,477.037201 309.924530,476.008270 
	C314.281738,474.950500 318.638977,473.892761 323.739410,472.737915 
	C328.508423,470.861969 333.277435,468.986023 338.814392,467.016205 
	C342.702148,465.291351 346.589905,463.566467 351.240784,461.917175 
	C354.302429,460.231689 357.364075,458.546234 361.197113,456.922607 
	C364.149445,455.313354 367.101807,453.704132 370.694458,451.813690 
	C373.145264,450.245758 375.596069,448.677826 378.689178,446.819031 
z"/>
<path fill="#9200DB" opacity="1.000000" stroke="none" 
	d="
M325.000000,42.167034 
	C341.048187,46.182243 355.689270,53.608047 369.898651,61.695728 
	C385.251404,70.434235 399.179718,81.163315 412.109894,93.391357 
	C436.614532,116.565353 454.760590,143.785553 467.043823,175.058975 
	C468.756836,179.420319 470.319458,183.840744 471.556793,188.547241 
	C469.266357,187.565369 467.110535,186.530930 465.513153,184.936859 
	C419.938934,139.456680 374.408356,93.932709 328.942932,48.343842 
	C327.258087,46.654430 326.297882,44.242340 325.000000,42.167034 
z"/>
<path fill="#9A03D4" opacity="1.000000" stroke="none" 
	d="
M324.652344,41.989265 
	C326.297882,44.242340 327.258087,46.654430 328.942932,48.343842 
	C374.408356,93.932709 419.938934,139.456680 465.513153,184.936859 
	C467.110535,186.530930 469.266357,187.565369 471.497284,188.929535 
	C474.203033,198.061447 476.573425,207.124481 478.553284,216.524200 
	C476.149292,215.447937 473.875000,214.296295 472.160187,212.584259 
	C415.523590,156.039062 358.927612,99.453156 302.398956,42.800083 
	C300.229156,40.625496 298.783997,37.727840 297.001160,35.167130 
	C306.102356,37.381916 315.203522,39.596706 324.652344,41.989265 
z"/>
<path fill="#FEC622" opacity="1.000000" stroke="none" 
	d="
M219.960876,479.140564 
	C212.421356,477.699402 204.881821,476.258240 197.097595,474.127563 
	C195.771225,471.994690 194.847092,470.394012 193.585190,469.130707 
	C143.998093,419.490234 94.386757,369.873932 44.731945,320.301178 
	C43.381237,318.952698 41.518387,318.117218 39.894360,317.042511 
	C38.259354,309.662872 36.624348,302.283264 35.307861,294.479645 
	C37.277016,295.063446 39.207527,295.790863 40.538044,297.119293 
	C99.310684,355.798645 158.040436,414.520966 216.700333,473.312988 
	C218.213776,474.829865 218.892731,477.179382 219.960876,479.140564 
z"/>
<path fill="#AF0AC3" opacity="1.000000" stroke="none" 
	d="
M481.833313,267.001007 
	C481.557312,271.057190 481.281311,275.113403 480.568634,279.564056 
	C478.275391,278.659729 476.178406,277.602081 474.597839,276.026428 
	C443.882599,245.407318 413.244598,214.710724 382.514099,184.106979 
	C380.850067,182.449829 378.515198,181.466278 376.304810,179.891968 
	C367.684509,159.890656 353.350342,146.089279 333.824127,137.116364 
	C332.459900,134.917664 331.315857,132.881378 329.727234,131.288467 
	C299.113220,100.591827 268.429016,69.965179 237.841599,39.242142 
	C236.191650,37.584862 235.263779,35.208675 233.999786,33.167152 
	C238.031738,32.787460 242.063690,32.407768 246.568237,32.447701 
	C248.108368,34.492630 248.932495,36.361118 250.278366,37.708401 
	C325.624847,113.133133 401.008423,188.520798 476.449036,263.851379 
	C477.872650,265.272919 480.022369,265.967346 481.833313,267.001007 
z"/>
<path fill="#FEB62C" opacity="1.000000" stroke="none" 
	d="
M250.998047,481.833679 
	C246.970001,481.883118 242.941940,481.932587 238.381866,481.582855 
	C236.715042,479.770905 235.701523,478.236908 234.428070,476.962677 
	C168.950043,411.445160 103.457825,345.941772 37.903343,280.500763 
	C36.361500,278.961578 34.093750,278.149536 32.164581,276.998352 
	C32.117302,272.639587 32.070019,268.280792 32.430199,263.530884 
	C34.734108,264.435730 36.892002,265.469910 38.489395,267.065277 
	C108.325188,336.813873 178.118362,406.605133 247.854950,476.452911 
	C249.274765,477.875000 249.966583,480.023895 250.998047,481.833679 
z"/>
<path fill="#A005CF" opacity="1.000000" stroke="none" 
	d="
M296.584534,35.095688 
	C298.783997,37.727840 300.229156,40.625496 302.398956,42.800083 
	C358.927612,99.453156 415.523590,156.039062 472.160187,212.584259 
	C473.875000,214.296295 476.149292,215.447937 478.498169,216.929749 
	C479.546509,222.703522 480.259399,228.408401 480.578186,234.482285 
	C478.772400,233.717239 477.239716,232.704346 475.966461,231.431839 
	C411.441284,166.946136 346.934143,102.442398 282.460663,37.905041 
	C281.094604,36.537621 280.143890,34.755280 278.999420,33.166504 
	C284.722260,33.785751 290.445068,34.405003 296.584534,35.095688 
z"/>
<path fill="#FED01D" opacity="1.000000" stroke="none" 
	d="
M39.943069,317.444061 
	C41.518387,318.117218 43.381237,318.952698 44.731945,320.301178 
	C94.386757,369.873932 143.998093,419.490234 193.585190,469.130707 
	C194.847092,470.394012 195.771225,471.994690 196.904205,473.784302 
	C187.191238,470.804077 177.426956,467.477600 167.161591,463.832672 
	C166.426865,463.323883 166.171707,463.169067 165.895004,463.049683 
	C165.895004,463.049683 165.964340,463.029541 165.904083,462.719727 
	C164.995529,461.206726 164.301651,459.849304 163.276520,458.822632 
	C128.005646,423.497955 92.718643,388.189240 57.349754,352.962830 
	C55.948189,351.566925 53.724659,350.996338 51.884117,350.041199 
	C47.920002,339.309326 43.955894,328.577484 39.943069,317.444061 
z"/>
<path fill="#FEA635" opacity="1.000000" stroke="none" 
	d="
M279.997131,480.833038 
	C276.624695,481.215057 273.252258,481.597076 269.365173,481.581238 
	C267.716034,479.771362 266.702759,478.238220 265.429810,476.964600 
	C189.278198,400.774231 113.108696,324.601776 36.906502,248.462036 
	C35.539089,247.095764 33.756081,246.145447 32.166996,245.001022 
	C32.444859,241.610291 32.722717,238.219559 33.408627,234.489685 
	C35.460960,235.516846 37.225285,236.762955 38.731819,238.267242 
	C69.773598,269.261871 100.767174,300.304810 131.856873,331.251251 
	C133.506424,332.893219 135.918991,333.768677 138.214203,335.273865 
	C146.754501,354.258484 160.752960,367.264343 179.014069,376.379700 
	C180.305191,378.609009 181.318069,380.736328 182.886459,382.309967 
	C213.842621,413.368622 244.873093,444.353180 275.842194,475.398956 
	C277.438629,476.999359 278.621613,479.012238 279.997131,480.833038 
z"/>
<path fill="#FEBE27" opacity="1.000000" stroke="none" 
	d="
M32.244617,277.404297 
	C34.093750,278.149536 36.361500,278.961578 37.903343,280.500763 
	C103.457825,345.941772 168.950043,411.445160 234.428070,476.962677 
	C235.701523,478.236908 236.715042,479.770905 237.923676,481.508606 
	C232.130096,481.172333 226.262695,480.511108 220.178085,479.495239 
	C218.892731,477.179382 218.213776,474.829865 216.700333,473.312988 
	C158.040436,414.520966 99.310684,355.798645 40.538044,297.119293 
	C39.207527,295.790863 37.277016,295.063446 35.258781,294.047852 
	C34.035675,288.630096 33.180164,283.220184 32.244617,277.404297 
z"/>
<path fill="#A506CB" opacity="1.000000" stroke="none" 
	d="
M278.622742,32.965576 
	C280.143890,34.755280 281.094604,36.537621 282.460663,37.905041 
	C346.934143,102.442398 411.441284,166.946136 475.966461,231.431839 
	C477.239716,232.704346 478.772400,233.717239 480.508759,234.925827 
	C481.213104,239.361908 481.592743,243.723434 481.578247,248.467682 
	C479.771210,247.715424 478.237244,246.701675 476.962952,245.428085 
	C407.440338,175.944641 337.935730,106.443230 268.464355,36.908592 
	C267.097290,35.540291 266.146149,33.756401 265.000977,32.166405 
	C269.416016,32.365818 273.831055,32.565231 278.622742,32.965576 
z"/>
<path fill="#C610AF" opacity="1.000000" stroke="none" 
	d="
M473.833496,319.001526 
	C471.465790,326.220276 469.098083,333.438995 466.101257,340.700684 
	C463.528412,339.209167 461.409485,337.850494 459.667236,336.113892 
	C435.509918,312.034760 411.415955,287.892059 387.257538,263.814056 
	C385.770905,262.332367 383.874878,261.261475 382.101532,259.535095 
	C382.078857,249.380295 382.123993,239.689865 382.493713,230.074783 
	C384.466797,231.521378 386.234589,232.773041 387.745941,234.281662 
	C414.752319,261.239258 441.717072,288.238586 468.737976,315.181610 
	C470.226318,316.665680 472.125549,317.737701 473.833496,319.001526 
z"/>
<path fill="#C710AF" opacity="1.000000" stroke="none" 
	d="
M172.954254,47.878235 
	C179.685486,45.580078 186.416702,43.281921 193.719391,41.231590 
	C195.647690,42.940056 196.959686,44.445480 198.367966,45.854706 
	C225.309525,72.814224 252.272919,99.751953 279.184509,126.741348 
	C280.666962,128.228104 281.738220,130.124939 282.536774,131.900726 
	C272.382324,131.923935 262.691956,131.877335 252.980515,131.480255 
	C251.655487,129.269104 250.591156,127.169792 249.011627,125.583481 
	C225.028549,101.497200 200.962967,77.493034 176.977066,53.409561 
	C175.387436,51.813469 174.283890,49.733269 172.954254,47.878235 
z"/>
<path fill="#BD0DB7" opacity="1.000000" stroke="none" 
	d="
M473.914948,318.610291 
	C472.125549,317.737701 470.226318,316.665680 468.737976,315.181610 
	C441.717072,288.238586 414.752319,261.239258 387.745941,234.281662 
	C386.234589,232.773041 384.466797,231.521378 382.425781,229.610428 
	C382.062531,221.046890 382.091827,213.023041 382.474609,205.019379 
	C384.572266,206.213516 386.562286,207.140762 388.024261,208.597839 
	C416.995453,237.471344 445.908752,266.402924 474.816101,295.340424 
	C475.982208,296.507751 476.974365,297.848816 478.047546,299.108978 
	C476.697144,305.478973 475.346771,311.848999 473.914948,318.610291 
z"/>
<path fill="#BD0DB7" opacity="1.000000" stroke="none" 
	d="
M283.000854,131.830902 
	C281.738220,130.124939 280.666962,128.228104 279.184509,126.741348 
	C252.272919,99.751953 225.309525,72.814224 198.367966,45.854706 
	C196.959686,44.445480 195.647690,42.940056 194.122406,41.184296 
	C200.652008,39.256893 207.350082,37.624615 214.724854,36.192844 
	C217.078506,38.239689 218.682541,40.158848 220.443283,41.921494 
	C248.578491,70.087624 276.744965,98.222549 304.855072,126.413704 
	C306.454163,128.017426 307.628967,130.044220 308.536621,131.940491 
	C299.714935,131.948212 291.357910,131.889557 283.000854,131.830902 
z"/>
<path fill="#D113A6" opacity="1.000000" stroke="none" 
	d="
M382.169342,259.999451 
	C383.874878,261.261475 385.770905,262.332367 387.257538,263.814056 
	C411.415955,287.892059 435.509918,312.034760 459.667236,336.113892 
	C461.409485,337.850494 463.528412,339.209167 465.784424,340.890564 
	C462.973572,347.930237 459.850464,354.822906 456.123077,361.712891 
	C454.059631,360.353851 452.556305,359.041656 451.147919,357.634491 
	C429.852478,336.358246 408.582733,315.056244 387.255096,293.812378 
	C385.768555,292.331726 383.873993,291.260712 382.101257,289.534912 
	C382.078674,279.380249 382.124023,269.689850 382.169342,259.999451 
z"/>
<path fill="#D113A6" opacity="1.000000" stroke="none" 
	d="
M172.580383,47.939926 
	C174.283890,49.733269 175.387436,51.813469 176.977066,53.409561 
	C200.962967,77.493034 225.028549,101.497200 249.011627,125.583481 
	C250.591156,127.169792 251.655487,129.269104 252.516266,131.549683 
	C243.048843,131.923264 234.024597,131.876938 224.925140,131.505981 
	C223.597137,129.651398 222.463562,128.002518 221.073685,126.609329 
	C199.664963,105.149445 178.209656,83.735992 156.817245,62.259884 
	C155.334534,60.771370 154.262268,58.874012 152.999130,57.166786 
	C159.401596,54.111729 165.804062,51.056671 172.580383,47.939926 
z"/>
<path fill="#A907C8" opacity="1.000000" stroke="none" 
	d="
M264.551117,32.096989 
	C266.146149,33.756401 267.097290,35.540291 268.464355,36.908592 
	C337.935730,106.443230 407.440338,175.944641 476.962952,245.428085 
	C478.237244,246.701675 479.771210,247.715424 481.508789,248.924606 
	C481.879791,252.032394 481.926025,255.065964 481.578064,258.474976 
	C479.772400,257.716766 478.239777,256.704376 476.966827,255.432129 
	C404.108246,182.612427 331.267578,109.774757 258.459869,36.904190 
	C257.094299,35.537434 256.144623,33.755173 255.000885,32.166771 
	C258.034332,32.120373 261.067810,32.073971 264.551117,32.096989 
z"/>
<path fill="#AB08C5" opacity="1.000000" stroke="none" 
	d="
M254.560822,32.097321 
	C256.144623,33.755173 257.094299,35.537434 258.459869,36.904190 
	C331.267578,109.774757 404.108246,182.612427 476.966827,255.432129 
	C478.239777,256.704376 479.772400,257.716766 481.508545,258.924683 
	C481.879669,261.372894 481.926086,263.746887 481.902924,266.560913 
	C480.022369,265.967346 477.872650,265.272919 476.449036,263.851379 
	C401.008423,188.520798 325.624847,113.133133 250.278366,37.708401 
	C248.932495,36.361118 248.108368,34.492630 247.019684,32.516983 
	C249.372620,32.120380 251.746689,32.074123 254.560822,32.097321 
z"/>
<path fill="#FEAF30" opacity="1.000000" stroke="none" 
	d="
M251.447357,481.907288 
	C249.966583,480.023895 249.274765,477.875000 247.854950,476.452911 
	C178.118362,406.605133 108.325188,336.813873 38.489395,267.065277 
	C36.892002,265.469910 34.734108,264.435730 32.502060,263.071228 
	C32.118412,259.968628 32.070362,256.934570 32.419376,253.525177 
	C34.229214,254.284836 35.763161,255.298569 37.037407,256.572144 
	C110.559746,330.055634 184.064148,403.557037 257.535675,477.091309 
	C258.902588,478.459412 259.853363,480.243347 260.998291,481.833282 
	C257.964417,481.882477 254.930527,481.931671 251.447357,481.907288 
z"/>
<path fill="#B50BBE" opacity="1.000000" stroke="none" 
	d="
M309.001282,131.874115 
	C307.628967,130.044220 306.454163,128.017426 304.855072,126.413704 
	C276.744965,98.222549 248.578491,70.087624 220.443283,41.921494 
	C218.682541,40.158848 217.078506,38.239689 215.148773,36.170731 
	C220.971024,34.974789 227.046051,34.001472 233.560440,33.097652 
	C235.263779,35.208675 236.191650,37.584862 237.841599,39.242142 
	C268.429016,69.965179 299.113220,100.591827 329.727234,131.288467 
	C331.315857,132.881378 332.459900,134.917664 333.448181,137.015381 
	C325.057343,135.480209 317.029327,133.677155 309.001282,131.874115 
z"/>
<path fill="#B50BBE" opacity="1.000000" stroke="none" 
	d="
M478.391785,298.888275 
	C476.974365,297.848816 475.982208,296.507751 474.816101,295.340424 
	C445.908752,266.402924 416.995453,237.471344 388.024261,208.597839 
	C386.562286,207.140762 384.572266,206.213516 382.377319,204.609680 
	C380.115234,196.176239 378.303925,188.172699 376.492615,180.169159 
	C378.515198,181.466278 380.850067,182.449829 382.514099,184.106979 
	C413.244598,214.710724 443.882599,245.407318 474.597839,276.026428 
	C476.178406,277.602081 478.275391,278.659729 480.482239,279.979218 
	C480.133728,286.222473 479.434906,292.445007 478.391785,298.888275 
z"/>
<path fill="#FED917" opacity="1.000000" stroke="none" 
	d="
M51.942944,350.417938 
	C53.724659,350.996338 55.948189,351.566925 57.349754,352.962830 
	C92.718643,388.189240 128.005646,423.497955 163.276520,458.822632 
	C164.301651,459.849304 164.995529,461.206726 165.893448,462.754242 
	C149.065445,456.192322 133.611176,446.808624 119.263489,435.653992 
	C111.901260,429.930145 104.510635,424.072784 98.060883,417.381226 
	C85.151268,403.987579 73.056725,389.824402 63.905571,373.473389 
	C59.737438,366.025879 55.957684,358.360962 51.942944,350.417938 
z"/>
<path fill="#FEAB32" opacity="1.000000" stroke="none" 
	d="
M261.437836,481.906311 
	C259.853363,480.243347 258.902588,478.459412 257.535675,477.091309 
	C184.064148,403.557037 110.559746,330.055634 37.037407,256.572144 
	C35.763161,255.298569 34.229214,254.284836 32.491589,253.075806 
	C32.118851,250.627991 32.070969,248.254181 32.095039,245.440704 
	C33.756081,246.145447 35.539089,247.095764 36.906502,248.462036 
	C113.108696,324.601776 189.278198,400.774231 265.429810,476.964600 
	C266.702759,478.238220 267.716034,479.771362 268.924683,481.508240 
	C266.625031,481.881805 264.251190,481.930573 261.437836,481.906311 
z"/>
<path fill="#DA169F" opacity="1.000000" stroke="none" 
	d="
M152.648193,57.208755 
	C154.262268,58.874012 155.334534,60.771370 156.817245,62.259884 
	C178.209656,83.735992 199.664963,105.149445 221.073685,126.609329 
	C222.463562,128.002518 223.597137,129.651398 224.460968,131.574997 
	C215.763428,132.152100 207.454834,132.335541 199.073273,132.148773 
	C197.725998,130.078232 196.634003,128.196442 195.149673,126.705139 
	C176.991882,108.462250 158.769379,90.283798 140.588394,72.063957 
	C138.955246,70.427322 137.494263,68.618904 135.953308,66.890274 
	C141.401291,63.677086 146.849274,60.463905 152.648193,57.208755 
z"/>
<path fill="#DB169E" opacity="1.000000" stroke="none" 
	d="
M382.169189,289.999207 
	C383.873993,291.260712 385.768555,292.331726 387.255096,293.812378 
	C408.582733,315.056244 429.852478,336.358246 451.147919,357.634491 
	C452.556305,359.041656 454.059631,360.353851 455.813416,361.879395 
	C453.314850,367.271362 450.521667,372.494171 447.077240,377.809448 
	C444.756226,376.573456 442.941223,375.390839 441.438843,373.894318 
	C423.648712,356.173279 405.935364,338.375000 388.106750,320.692932 
	C386.148102,318.750366 383.598572,317.403595 381.305969,315.323120 
	C381.582275,306.576904 381.875732,298.288055 382.169189,289.999207 
z"/>
<path fill="#FE7850" opacity="1.000000" stroke="none" 
	d="
M338.046448,467.110077 
	C333.277435,468.986023 328.508423,470.861969 323.294434,472.461426 
	C321.484558,470.541382 320.239807,468.777893 318.736938,467.272095 
	C292.695221,441.180725 266.596710,415.145966 240.606750,389.003235 
	C238.696121,387.081329 237.519043,384.430176 236.464401,382.045349 
	C243.285843,382.021149 249.643829,382.069611 256.021301,382.471710 
	C257.334137,384.690247 258.381317,386.800262 259.957672,388.383362 
	C284.519043,413.049927 309.153809,437.643372 333.750793,462.274536 
	C335.271637,463.797516 336.618591,465.494202 338.046448,467.110077 
z"/>
<path fill="#FE8647" opacity="1.000000" stroke="none" 
	d="
M37.955246,204.889130 
	C39.060436,200.023209 40.165630,195.157288 41.832207,190.346176 
	C44.239761,192.078323 46.158367,193.683151 47.921234,195.443893 
	C74.203888,221.694992 100.454865,247.977814 126.762062,274.204285 
	C128.248123,275.685760 130.156235,276.743896 131.939529,278.462708 
	C131.963593,284.950714 131.916031,290.975159 131.541061,296.926636 
	C129.683578,295.610321 128.030899,294.489929 126.641953,293.104980 
	C107.581703,274.099670 88.582008,255.033585 69.515411,236.034637 
	C59.045795,225.602188 48.478500,215.267746 37.955246,204.889130 
z"/>
<path fill="#FE7850" opacity="1.000000" stroke="none" 
	d="
M131.867920,277.999084 
	C130.156235,276.743896 128.248123,275.685760 126.762062,274.204285 
	C100.454865,247.977814 74.203888,221.694992 47.921234,195.443893 
	C46.158367,193.683151 44.239761,192.078323 42.171509,190.147827 
	C43.380615,185.367249 44.811794,180.839828 46.908607,176.204620 
	C49.245232,177.427216 51.062614,178.610840 52.565376,180.109848 
	C77.312546,204.795486 102.008324,229.532654 126.765793,254.207947 
	C128.250870,255.688110 130.157608,256.745209 131.940552,258.462738 
	C131.964630,265.283905 131.916275,271.641479 131.867920,277.999084 
z"/>
<path fill="#FE9D3B" opacity="1.000000" stroke="none" 
	d="
M137.976349,335.000946 
	C135.918991,333.768677 133.506424,332.893219 131.856873,331.251251 
	C100.767174,300.304810 69.773598,269.261871 38.731819,238.267242 
	C37.225285,236.762955 35.460960,235.516846 33.491814,234.076782 
	C33.706829,229.249161 34.246708,224.495285 35.301468,219.446091 
	C37.464180,220.520538 39.231907,221.770233 40.742096,223.277878 
	C69.382874,251.870438 97.979172,280.507599 126.647957,309.071991 
	C128.226868,310.645111 130.355820,311.666199 132.413177,313.281799 
	C134.390533,320.746521 136.183441,327.873749 137.976349,335.000946 
z"/>
<path fill="#FE9D3B" opacity="1.000000" stroke="none" 
	d="
M280.435120,480.906433 
	C278.621613,479.012238 277.438629,476.999359 275.842194,475.398956 
	C244.873093,444.353180 213.842621,413.368622 182.886459,382.309967 
	C181.318069,380.736328 180.305191,378.609009 179.391785,376.398743 
	C186.854095,377.958527 193.958267,379.859131 201.104813,382.113220 
	C202.440247,384.153320 203.563217,386.009644 205.051529,387.501465 
	C233.354980,415.873108 261.724243,444.179138 289.984528,472.593597 
	C291.745422,474.364075 292.721741,476.914825 294.063049,479.102539 
	C289.666382,479.728302 285.269745,480.354065 280.435120,480.906433 
z"/>
<path fill="#FE8647" opacity="1.000000" stroke="none" 
	d="
M236.000931,382.118042 
	C237.519043,384.430176 238.696121,387.081329 240.606750,389.003235 
	C266.596710,415.145966 292.695221,441.180725 318.736938,467.272095 
	C320.239807,468.777893 321.484558,470.541382 322.922821,472.509949 
	C318.638977,473.892761 314.281738,474.950500 309.262329,475.806580 
	C306.926880,473.763397 305.325897,471.849731 303.569519,470.091309 
	C276.091034,442.582001 248.580978,415.104187 221.128204,387.569244 
	C219.533829,385.970123 218.366776,383.944946 217.464111,382.044861 
	C223.951889,382.020508 229.976410,382.069275 236.000931,382.118042 
z"/>
<path fill="#FE6A58" opacity="1.000000" stroke="none" 
	d="
M131.868134,257.999176 
	C130.157608,256.745209 128.250870,255.688110 126.765793,254.207947 
	C102.008324,229.532654 77.312546,204.795486 52.565376,180.109848 
	C51.062614,178.610840 49.245232,177.427216 47.230267,176.026581 
	C48.678360,171.399979 50.470428,166.843643 52.871975,162.288452 
	C54.942051,163.647675 56.446758,164.961594 57.856678,166.370377 
	C80.823372,189.318481 103.765419,212.291321 126.764862,235.206528 
	C128.250504,236.686752 130.157715,237.743866 131.942017,239.461243 
	C131.966171,245.949524 131.917160,251.974350 131.868134,257.999176 
z"/>
<path fill="#FE9241" opacity="1.000000" stroke="none" 
	d="
M217.000854,382.118042 
	C218.366776,383.944946 219.533829,385.970123 221.128204,387.569244 
	C248.580978,415.104187 276.091034,442.582001 303.569519,470.091309 
	C305.325897,471.849731 306.926880,473.763397 308.853943,475.826172 
	C304.378326,477.037201 299.648926,478.026917 294.491272,479.059631 
	C292.721741,476.914825 291.745422,474.364075 289.984528,472.593597 
	C261.724243,444.179138 233.354980,415.873108 205.051529,387.501465 
	C203.563217,386.009644 202.440247,384.153320 201.566559,382.068756 
	C206.990906,381.819885 211.995880,381.968964 217.000854,382.118042 
z"/>
<path fill="#FE9241" opacity="1.000000" stroke="none" 
	d="
M132.228729,312.944275 
	C130.355820,311.666199 128.226868,310.645111 126.647957,309.071991 
	C97.979172,280.507599 69.382874,251.870438 40.742096,223.277878 
	C39.231907,221.770233 37.464180,220.520538 35.491459,219.077087 
	C35.865780,214.435440 36.564983,209.867447 37.609718,205.094299 
	C48.478500,215.267746 59.045795,225.602188 69.515411,236.034637 
	C88.582008,255.033585 107.581703,274.099670 126.641953,293.104980 
	C128.030899,294.489929 129.683578,295.610321 131.612305,297.388672 
	C132.083542,302.930511 132.156143,307.937408 132.228729,312.944275 
z"/>
<path fill="#E31998" opacity="1.000000" stroke="none" 
	d="
M135.632690,67.038559 
	C137.494263,68.618904 138.955246,70.427322 140.588394,72.063957 
	C158.769379,90.283798 176.991882,108.462250 195.149673,126.705139 
	C196.634003,128.196442 197.725998,130.078232 198.722687,132.287811 
	C192.296127,134.410690 186.147186,136.024323 179.974472,137.299561 
	C178.733078,135.240097 177.729599,133.306442 176.264725,131.830826 
	C161.509949,116.967667 146.662476,102.196602 131.883270,87.357590 
	C128.490646,83.951241 125.259720,80.383850 121.954376,76.890579 
	C126.406944,73.655998 130.859497,70.421417 135.632690,67.038559 
z"/>
<path fill="#FE6A58" opacity="1.000000" stroke="none" 
	d="
M338.430420,467.063141 
	C336.618591,465.494202 335.271637,463.797516 333.750793,462.274536 
	C309.153809,437.643372 284.519043,413.049927 259.957672,388.383362 
	C258.381317,386.800262 257.334137,384.690247 256.484314,382.399384 
	C262.619171,382.021606 268.310486,382.069794 274.068695,382.457031 
	C275.655609,384.929016 276.913300,387.322815 278.735626,389.155090 
	C301.115723,411.657532 323.587402,434.068848 346.001160,456.537872 
	C347.629364,458.170105 348.991730,460.067505 350.477692,461.841614 
	C346.589905,463.566467 342.702148,465.291351 338.430420,467.063141 
z"/>
<path fill="#FB2183" opacity="1.000000" stroke="none" 
	d="
M416.137787,417.050812 
	C411.692169,421.032288 407.246521,425.013794 402.159668,428.854126 
	C383.269073,410.559113 365.008392,392.416626 346.804718,374.217072 
	C345.924133,373.336731 345.545197,371.954620 345.107971,370.520874 
	C349.509857,367.153259 353.736389,364.070892 358.251831,361.157166 
	C375.885101,378.575043 393.209229,395.844788 410.607574,413.039368 
	C412.208679,414.621735 414.283112,415.725067 416.137787,417.050812 
z"/>
<path fill="#E31998" opacity="1.000000" stroke="none" 
	d="
M381.323059,315.780518 
	C383.598572,317.403595 386.148102,318.750366 388.106750,320.692932 
	C405.935364,338.375000 423.648712,356.173279 441.438843,373.894318 
	C442.941223,375.390839 444.756226,376.573456 446.770142,377.971680 
	C443.985809,382.619324 440.857330,387.197205 437.123108,391.742737 
	C418.499542,373.794922 400.506104,355.854767 382.424103,338.004333 
	C380.716888,336.318970 378.452850,335.197632 376.553955,333.440125 
	C378.214722,327.304016 379.768890,321.542267 381.323059,315.780518 
z"/>
<path fill="#FB2183" opacity="1.000000" stroke="none" 
	d="
M83.883102,112.956329 
	C86.620758,109.773247 89.379333,106.607819 92.086105,103.398689 
	C93.220192,102.054138 94.244446,100.616959 95.796494,99.347710 
	C113.522125,116.821526 130.789810,134.149857 147.984467,151.550323 
	C149.567780,153.152573 150.685699,155.214737 151.898102,157.374268 
	C148.810654,161.455994 145.844833,165.226791 142.525513,168.978363 
	C140.430618,167.788605 138.449142,166.860397 136.985214,165.409866 
	C123.192780,151.743591 109.509155,137.967590 95.745949,124.271698 
	C91.873245,120.417931 87.841759,116.723724 83.883102,112.956329 
z"/>
<path fill="#F21E8B" opacity="1.000000" stroke="none" 
	d="
M416.449463,416.919495 
	C414.283112,415.725067 412.208679,414.621735 410.607574,413.039368 
	C393.209229,395.844788 375.885101,378.575043 358.393921,360.853882 
	C361.833435,356.255157 365.419769,352.128357 369.342407,348.067688 
	C371.216309,349.353149 372.888580,350.437164 374.270721,351.812683 
	C388.478485,365.952423 402.657593,380.121094 416.800079,394.326080 
	C420.297485,397.838867 423.633453,401.512299 427.043640,405.111938 
	C423.616180,409.004028 420.188660,412.896118 416.449463,416.919495 
z"/>
<path fill="#F31E8A" opacity="1.000000" stroke="none" 
	d="
M152.019714,157.063339 
	C150.685699,155.214737 149.567780,153.152573 147.984467,151.550323 
	C130.789810,134.149857 113.522125,116.821526 96.098373,99.182159 
	C99.710495,95.332214 103.498596,91.773643 107.903404,88.231644 
	C110.461487,89.780273 112.574989,91.139206 114.317360,92.871422 
	C130.105667,108.567688 145.815918,124.342438 161.591309,140.051743 
	C163.223419,141.677017 165.130203,143.026489 166.649811,144.747559 
	C161.599960,149.015228 156.809845,153.039291 152.019714,157.063339 
z"/>
<path fill="#EB1C91" opacity="1.000000" stroke="none" 
	d="
M166.909531,144.503922 
	C165.130203,143.026489 163.223419,141.677017 161.591309,140.051743 
	C145.815918,124.342438 130.105667,108.567688 114.317360,92.871422 
	C112.574989,91.139206 110.461487,89.780273 108.208359,88.098694 
	C111.684975,84.712418 115.473335,81.475662 119.778107,78.001663 
	C120.560776,77.603836 120.794273,77.404793 120.995010,77.167313 
	C120.995010,77.167313 121.469612,77.011299 121.711990,76.950935 
	C125.259720,80.383850 128.490646,83.951241 131.883270,87.357590 
	C146.662476,102.196602 161.509949,116.967667 176.264725,131.830826 
	C177.729599,133.306442 178.733078,135.240097 179.650696,137.476700 
	C175.203644,140.162811 171.056580,142.333374 166.909531,144.503922 
z"/>
<path fill="#EB1C91" opacity="1.000000" stroke="none" 
	d="
M427.360229,404.967682 
	C423.633453,401.512299 420.297485,397.838867 416.800079,394.326080 
	C402.657593,380.121094 388.478485,365.952423 374.270721,351.812683 
	C372.888580,350.437164 371.216309,349.353149 369.421570,347.730896 
	C371.592072,342.823486 374.019684,338.318970 376.447327,333.814453 
	C378.452850,335.197632 380.716888,336.318970 382.424103,338.004333 
	C400.506104,355.854767 418.499542,373.794922 436.811829,391.879639 
	C433.963104,396.307098 430.819946,400.565277 427.360229,404.967682 
z"/>
<path fill="#FE5E5F" opacity="1.000000" stroke="none" 
	d="
M131.868835,238.997787 
	C130.157715,237.743866 128.250504,236.686752 126.764862,235.206528 
	C103.765419,212.291321 80.823372,189.318481 57.856678,166.370377 
	C56.446758,164.961594 54.942051,163.647675 53.187004,162.120224 
	C54.623940,158.187012 56.355328,154.423203 58.520416,150.747833 
	C59.551323,151.632187 60.062183,152.514282 60.758247,153.211487 
	C82.872772,175.362427 104.987076,197.513718 127.185318,219.580551 
	C128.373489,220.761673 130.290924,221.209152 131.942657,222.460800 
	C131.967239,228.281555 131.918045,233.639664 131.868835,238.997787 
z"/>
<path fill="#FE5F5E" opacity="1.000000" stroke="none" 
	d="
M350.859253,461.879395 
	C348.991730,460.067505 347.629364,458.170105 346.001160,456.537872 
	C323.587402,434.068848 301.115723,411.657532 278.735626,389.155090 
	C276.913300,387.322815 275.655609,384.929016 274.529846,382.384277 
	C279.616791,382.021057 284.309418,382.069641 289.073853,382.446655 
	C290.386292,384.306091 291.502136,385.961670 292.886414,387.349487 
	C313.883881,408.400726 334.940338,429.393188 355.898773,450.483093 
	C357.711487,452.307159 358.930786,454.720886 360.425720,456.860779 
	C357.364075,458.546234 354.302429,460.231689 350.859253,461.879395 
z"/>
<path fill="#FE5166" opacity="1.000000" stroke="none" 
	d="
M131.868881,221.998169 
	C130.290924,221.209152 128.373489,220.761673 127.185318,219.580551 
	C104.987076,197.513718 82.872772,175.362427 60.758247,153.211487 
	C60.062183,152.514282 59.551323,151.632187 58.784824,150.479950 
	C60.293579,147.056839 61.971630,143.990051 64.253426,140.911224 
	C66.467094,142.328445 68.154121,143.680450 69.675232,145.198700 
	C88.719604,164.207260 107.724480,183.255463 126.796654,202.236023 
	C128.278000,203.710251 130.188141,204.753601 131.973602,206.459106 
	C131.988434,211.946732 131.928650,216.972443 131.868881,221.998169 
z"/>
<path fill="#FE446E" opacity="1.000000" stroke="none" 
	d="
M131.898987,205.997208 
	C130.188141,204.753601 128.278000,203.710251 126.796654,202.236023 
	C107.724480,183.255463 88.719604,164.207260 69.675232,145.198700 
	C68.154121,143.680450 66.467094,142.328445 64.510658,140.703857 
	C66.194801,137.084564 68.225464,133.660583 70.869263,130.263016 
	C72.944244,131.648911 74.449776,132.964645 75.861298,134.374512 
	C93.193939,151.686661 110.478783,169.046997 127.890350,186.279327 
	C129.547256,187.919189 131.974579,188.780655 134.096649,190.421143 
	C133.399048,195.891602 132.649017,200.944397 131.898987,205.997208 
z"/>
<path fill="#FE5464" opacity="1.000000" stroke="none" 
	d="
M360.811401,456.891663 
	C358.930786,454.720886 357.711487,452.307159 355.898773,450.483093 
	C334.940338,429.393188 313.883881,408.400726 292.886414,387.349487 
	C291.502136,385.961670 290.386292,384.306091 289.533478,382.373596 
	C294.281281,382.020660 298.641205,382.069122 303.072998,382.446045 
	C304.383575,384.303467 305.497742,385.956604 306.879730,387.342712 
	C325.617310,406.136200 344.421356,424.863495 363.123383,443.692169 
	C365.671143,446.257141 367.755310,449.282623 370.054138,452.094879 
	C367.101807,453.704132 364.149445,455.313354 360.811401,456.891663 
z"/>
<path fill="#FE3675" opacity="1.000000" stroke="none" 
	d="
M134.044235,190.003494 
	C131.974579,188.780655 129.547256,187.919189 127.890350,186.279327 
	C110.478783,169.046997 93.193939,151.686661 75.861298,134.374512 
	C74.449776,132.964645 72.944244,131.648911 71.188026,130.119934 
	C73.038300,126.699150 75.182938,123.447845 77.808075,120.334961 
	C97.166672,139.449585 116.036301,158.434250 134.953384,177.371521 
	C135.723770,178.142746 136.941360,178.467194 137.935913,179.365723 
	C136.628876,183.155609 135.336548,186.579544 134.044235,190.003494 
z"/>
<path fill="#FE3675" opacity="1.000000" stroke="none" 
	d="
M394.114258,436.042664 
	C391.821625,437.758301 389.528992,439.473907 386.659607,441.164246 
	C385.682739,440.841187 385.238342,440.587769 384.888733,440.239258 
	C365.928253,421.336304 346.956635,402.444397 328.072815,383.465118 
	C327.009247,382.396118 326.674652,380.601837 326.339539,378.986938 
	C329.728485,377.730438 332.778687,376.632141 335.910034,375.899719 
	C337.391022,378.074707 338.621033,380.051483 340.216766,381.667114 
	C358.150116,399.824341 376.139740,417.926025 394.114258,436.042664 
z"/>
<path fill="#FE4070" opacity="1.000000" stroke="none" 
	d="
M326.000763,379.145142 
	C326.674652,380.601837 327.009247,382.396118 328.072815,383.465118 
	C346.956635,402.444397 365.928253,421.336304 384.888733,440.239258 
	C385.238342,440.587769 385.682739,440.841187 386.405975,441.381744 
	C384.049103,443.356018 381.369141,445.087524 378.199402,446.669495 
	C376.352570,445.059570 375.039856,443.554901 373.631866,442.145386 
	C355.283234,423.776459 336.894958,405.446899 318.609558,387.015320 
	C317.066254,385.459656 316.189453,383.242737 315.401428,381.217834 
	C319.200134,380.450104 322.600464,379.797638 326.000763,379.145142 
z"/>
<path fill="#FE2B7C" opacity="1.000000" stroke="none" 
	d="
M137.950607,178.999786 
	C136.941360,178.467194 135.723770,178.142746 134.953384,177.371521 
	C116.036301,158.434250 97.166672,139.449585 78.120514,120.177475 
	C79.725616,117.661156 81.498772,115.440742 83.577515,113.088333 
	C87.841759,116.723724 91.873245,120.417931 95.745949,124.271698 
	C109.509155,137.967590 123.192780,151.743591 136.985214,165.409866 
	C138.449142,166.860397 140.430618,167.788605 142.535797,169.328278 
	C141.249924,172.798203 139.600266,175.899002 137.950607,178.999786 
z"/>
<path fill="#FE2B7C" opacity="1.000000" stroke="none" 
	d="
M394.421082,435.909821 
	C376.139740,417.926025 358.150116,399.824341 340.216766,381.667114 
	C338.621033,380.051483 337.391022,378.074707 336.169128,375.688599 
	C339.208984,373.676453 342.070801,372.241333 344.932617,370.806213 
	C345.545197,371.954620 345.924133,373.336731 346.804718,374.217072 
	C365.008392,392.416626 383.269073,410.559113 401.812683,428.882874 
	C399.647278,431.294189 397.187622,433.535614 394.421082,435.909821 
z"/>
<path fill="#FE4A6A" opacity="1.000000" stroke="none" 
	d="
M315.002991,381.333038 
	C316.189453,383.242737 317.066254,385.459656 318.609558,387.015320 
	C336.894958,405.446899 355.283234,423.776459 373.631866,442.145386 
	C375.039856,443.554901 376.352570,445.059570 377.878235,446.814941 
	C375.596069,448.677826 373.145264,450.245758 370.374298,451.954285 
	C367.755310,449.282623 365.671143,446.257141 363.123383,443.692169 
	C344.421356,424.863495 325.617310,406.136200 306.879730,387.342712 
	C305.497742,385.956604 304.383575,384.303467 303.516296,382.372925 
	C307.592804,381.758606 311.297913,381.545837 315.002991,381.333038 
z"/>
<path fill="#E31998" opacity="1.000000" stroke="none" 
	d="
M120.730263,77.139526 
	C120.794273,77.404793 120.560776,77.603836 120.086296,77.864265 
	C120.073883,77.679977 120.269699,77.395859 120.730263,77.139526 
z"/>
<path fill="#FED917" opacity="1.000000" stroke="none" 
	d="
M165.981522,463.298096 
	C166.171707,463.169067 166.426865,463.323883 166.818176,463.673767 
	C166.673264,463.737762 166.370651,463.642151 165.981522,463.298096 
z"/>
<path fill="#FFFDFE" opacity="1.000000" stroke="none" 
	d="
M315.401428,381.217834 
	C311.297913,381.545837 307.592804,381.758606 303.444427,382.044495 
	C298.641205,382.069122 294.281281,382.020660 289.461731,382.045197 
	C284.309418,382.069641 279.616791,382.021057 274.462982,382.045227 
	C268.310486,382.069794 262.619171,382.021606 256.464813,382.045746 
	C249.643829,382.069611 243.285843,382.021149 236.464401,382.045349 
	C229.976410,382.069275 223.951889,382.020508 217.464111,382.044861 
	C211.995880,381.968964 206.990906,381.819885 201.524185,381.715271 
	C193.958267,379.859131 186.854095,377.958527 179.372192,376.038940 
	C160.752960,367.264343 146.754501,354.258484 138.214203,335.273865 
	C136.183441,327.873749 134.390533,320.746521 132.413177,313.281799 
	C132.156143,307.937408 132.083542,302.930511 131.939697,297.461609 
	C131.916031,290.975159 131.963593,284.950714 131.939529,278.462708 
	C131.916275,271.641479 131.964630,265.283905 131.940552,258.462738 
	C131.917160,251.974350 131.966171,245.949524 131.942017,239.461243 
	C131.918045,233.639664 131.967239,228.281555 131.942657,222.460800 
	C131.928650,216.972443 131.988434,211.946732 131.973602,206.459106 
	C132.649017,200.944397 133.399048,195.891602 134.096649,190.421143 
	C135.336548,186.579544 136.628876,183.155609 137.935913,179.365723 
	C139.600266,175.899002 141.249924,172.798203 142.889313,169.347504 
	C145.844833,165.226791 148.810654,161.455994 151.898102,157.374268 
	C156.809845,153.039291 161.599960,149.015228 166.649811,144.747559 
	C171.056580,142.333374 175.203644,140.162811 179.674469,137.815094 
	C186.147186,136.024323 192.296127,134.410690 198.795654,132.658020 
	C207.454834,132.335541 215.763428,132.152100 224.536194,131.899628 
	C234.024597,131.876938 243.048843,131.923264 252.537323,131.900146 
	C262.691956,131.877335 272.382324,131.923935 282.536774,131.900726 
	C291.357910,131.889557 299.714935,131.948212 308.536621,131.940491 
	C317.029327,133.677155 325.057343,135.480209 333.461365,137.384232 
	C353.350342,146.089279 367.684509,159.890656 376.304779,179.891968 
	C378.303925,188.172699 380.115234,196.176239 382.023865,204.589478 
	C382.091827,213.023041 382.062531,221.046890 382.101135,229.535095 
	C382.123993,239.689865 382.078857,249.380295 382.101532,259.535095 
	C382.124023,269.689850 382.078674,279.380249 382.101257,289.534912 
	C381.875732,298.288055 381.582275,306.576904 381.305969,315.323120 
	C379.768890,321.542267 378.214722,327.304016 376.553955,333.440125 
	C374.019684,338.318970 371.592072,342.823486 369.085266,347.664795 
	C365.419769,352.128357 361.833435,356.255157 358.105011,360.685242 
	C353.736389,364.070892 349.509857,367.153259 345.107971,370.520905 
	C342.070801,372.241333 339.208984,373.676453 336.088043,375.322693 
	C332.778687,376.632141 329.728485,377.730438 326.339539,378.986938 
	C322.600464,379.797638 319.200134,380.450104 315.401428,381.217834 
M293.926727,354.068298 
	C298.620087,353.991913 303.313416,353.915527 308.825195,353.962097 
	C312.886719,352.984131 316.948273,352.006165 321.750641,351.010590 
	C327.153595,347.640930 332.556519,344.271240 338.584778,340.670685 
	C342.203461,335.491394 345.822113,330.312103 349.888611,324.596893 
	C351.200653,318.731934 352.512695,312.866974 353.982208,306.075989 
	C353.944519,299.050354 353.906830,292.024689 354.018250,284.072754 
	C353.968689,277.714844 353.919128,271.356964 354.019714,264.074524 
	C353.969757,258.716156 353.919830,253.357803 354.018799,247.073257 
	C353.969147,241.048569 353.919495,235.023865 354.019012,228.072479 
	C353.956055,221.048279 353.893127,214.024063 353.946747,206.174179 
	C353.361084,203.447662 352.578064,200.746674 352.221680,197.990524 
	C349.898560,180.023804 331.133606,161.289322 307.074188,160.036392 
	C300.049408,160.062881 293.024597,160.089371 285.074310,159.960419 
	C278.716614,160.012726 272.358948,160.065033 265.075836,159.961975 
	C259.050934,160.013412 253.026031,160.064835 246.074814,159.961288 
	C237.382919,160.012497 228.691040,160.063705 219.074295,159.960587 
	C209.509857,159.923004 199.862289,159.266632 190.175690,163.845016 
	C184.179306,168.243469 178.182922,172.641922 171.599670,177.393356 
	C168.719849,182.591629 165.840042,187.789886 162.456543,193.540497 
	C161.720673,197.025391 160.984802,200.510300 160.050827,204.909653 
	C160.062180,209.606155 160.073547,214.302658 159.918961,219.921753 
	C159.974365,225.280777 160.029770,230.639801 159.922012,236.913071 
	C159.976105,240.941818 160.030212,244.970551 159.924026,249.896011 
	C159.977829,252.930252 160.031616,255.964508 159.927612,259.908813 
	C159.980682,263.605621 160.033752,267.302429 159.927475,271.922852 
	C159.980698,277.281677 160.033905,282.640533 159.928589,288.924469 
	C159.996780,294.948181 160.064972,300.971893 160.014969,307.846466 
	C161.194885,332.773926 183.099274,354.228180 207.928131,354.030548 
	C213.952240,353.991333 219.976349,353.952118 226.924698,354.067078 
	C232.283554,354.015808 237.642395,353.964508 243.911636,354.067932 
	C247.608307,354.016846 251.304993,353.965729 255.911789,354.071625 
	C259.610718,354.018860 263.309631,353.966064 267.922729,354.066803 
	C271.949463,354.015320 275.976196,353.963806 280.917297,354.071014 
	C284.946991,354.018127 288.976715,353.965240 293.926727,354.068298 
z"/>
<path fill="#D515A3" opacity="1.000000" stroke="none" 
	d="
M353.869873,247.999435 
	C353.919830,253.357803 353.969757,258.716156 353.617371,264.464355 
	C351.809082,263.735077 350.284515,262.735535 349.016235,261.477600 
	C340.097137,252.631012 331.309357,243.650070 322.280731,234.917664 
	C320.499939,233.195312 317.856567,232.364777 315.385193,230.876556 
	C307.875580,214.785873 295.680603,204.085495 279.972626,196.685181 
	C278.816406,194.558594 277.931946,192.543930 276.491119,191.074936 
	C267.865265,182.280396 259.081329,173.641129 250.431595,164.869720 
	C249.075668,163.494736 248.134232,161.710999 247.001129,160.116272 
	C253.026031,160.064835 259.050934,160.013412 265.610229,160.367889 
	C267.149841,162.069214 268.029266,163.490143 269.178680,164.641586 
	C295.919617,191.430161 322.680664,218.198730 349.483612,244.925217 
	C350.729156,246.167145 352.398102,246.984406 353.869873,247.999435 
z"/>
<path fill="#CF13A8" opacity="1.000000" stroke="none" 
	d="
M353.944336,247.536346 
	C352.398102,246.984406 350.729156,246.167145 349.483612,244.925217 
	C322.680664,218.198730 295.919617,191.430161 269.178680,164.641586 
	C268.029266,163.490143 267.149841,162.069214 266.072937,160.445587 
	C272.358948,160.065033 278.716614,160.012726 285.608948,160.366486 
	C294.548187,169.343964 302.943542,177.924515 311.385406,186.459030 
	C311.793304,186.871399 312.610626,186.878738 313.258484,187.473495 
	C313.592804,196.444901 317.066223,199.809799 326.021301,200.544159 
	C326.866791,202.266510 327.461884,203.864792 328.552521,204.977158 
	C335.703369,212.270477 342.935211,219.485352 350.214417,226.650818 
	C351.224609,227.645203 352.641357,228.226593 353.869873,228.999176 
	C353.919495,235.023865 353.969147,241.048569 353.944336,247.536346 
z"/>
<path fill="#FE6A58" opacity="1.000000" stroke="none" 
	d="
M160.087128,287.999359 
	C160.033905,282.640533 159.980698,277.281677 160.337433,271.531677 
	C162.045258,272.140839 163.471725,273.012299 164.622101,274.160400 
	C189.761292,299.249939 214.879868,324.360199 239.954132,349.514557 
	C241.193466,350.757874 241.995560,352.437012 243.001251,353.913208 
	C237.642395,353.964508 232.283554,354.015808 226.391907,353.659760 
	C224.972046,352.067932 224.213501,350.755249 223.178894,349.717896 
	C203.530975,330.018585 183.862076,310.340057 164.146698,290.708282 
	C163.015747,289.582092 161.450348,288.892273 160.087128,287.999359 
z"/>
<path fill="#E81B94" opacity="1.000000" stroke="none" 
	d="
M190.904465,163.744781 
	C199.862289,159.266632 209.509857,159.923004 219.556824,160.391342 
	C221.085266,162.440292 221.895538,164.289139 223.216156,165.638474 
	C230.610779,173.193863 238.174881,180.583420 245.564545,188.143555 
	C247.005264,189.617523 247.931595,191.594254 248.761826,193.515976 
	C240.667648,196.266357 232.906815,198.839859 224.984680,201.092804 
	C214.968338,190.767197 205.045486,180.827271 195.317505,170.700165 
	C193.453262,168.759445 192.355728,166.082214 190.904465,163.744781 
z"/>
<path fill="#FE7750" opacity="1.000000" stroke="none" 
	d="
M160.007858,288.461914 
	C161.450348,288.892273 163.015747,289.582092 164.146698,290.708282 
	C183.862076,310.340057 203.530975,330.018585 223.178894,349.717896 
	C224.213501,350.755249 224.972046,352.067932 225.929779,353.582672 
	C219.976349,353.952118 213.952240,353.991333 207.392319,353.623199 
	C206.318314,352.396027 205.902008,351.454742 205.223984,350.774261 
	C191.326279,336.826416 177.411057,322.895874 163.448059,309.013458 
	C162.556076,308.126617 161.247787,307.658508 160.133163,306.995605 
	C160.064972,300.971893 159.996780,294.948181 160.007858,288.461914 
z"/>
<path fill="#FE5F5E" opacity="1.000000" stroke="none" 
	d="
M243.456451,353.990570 
	C241.995560,352.437012 241.193466,350.757874 239.954132,349.514557 
	C214.879868,324.360199 189.761292,299.249939 164.622101,274.160400 
	C163.471725,273.012299 162.045258,272.140839 160.417099,271.069885 
	C160.033752,267.302429 159.980682,263.605621 160.336929,259.524414 
	C162.049072,260.144714 163.481003,261.020142 164.635864,262.173096 
	C193.764984,291.254181 222.873764,320.355713 251.940186,349.499451 
	C253.184921,350.747528 253.991150,352.432953 255.001663,353.914612 
	C251.304993,353.965729 247.608307,354.016846 243.456451,353.990570 
z"/>
<path fill="#FE5864" opacity="1.000000" stroke="none" 
	d="
M255.456726,353.993103 
	C253.991150,352.432953 253.184921,350.747528 251.940186,349.499451 
	C222.873764,320.355713 193.764984,291.254181 164.635864,262.173096 
	C163.481003,261.020142 162.049072,260.144714 160.415833,259.069366 
	C160.031616,255.964508 159.977829,252.930252 160.334625,249.518250 
	C162.160660,250.257828 163.698837,251.251312 164.971664,252.512558 
	C173.459702,260.923492 181.806808,269.478882 190.399109,277.780945 
	C192.594788,279.902466 195.508316,281.281067 198.285309,283.277588 
	C206.686691,299.068695 218.534531,310.628357 235.008072,317.536011 
	C236.097412,319.856293 236.822647,322.156860 238.324570,323.702881 
	C246.656662,332.279755 255.208862,340.642365 263.601990,349.160797 
	C264.953339,350.532349 265.883606,352.318695 267.008545,353.913269 
	C263.309631,353.966064 259.610718,354.018860 255.456726,353.993103 
z"/>
<path fill="#F31F8B" opacity="1.000000" stroke="none" 
	d="
M190.540070,163.794891 
	C192.355728,166.082214 193.453262,168.759445 195.317505,170.700165 
	C205.045486,180.827271 214.968338,190.767197 224.760406,201.326508 
	C219.841019,205.700699 214.984619,209.520676 209.917114,213.061096 
	C198.894913,202.111862 188.108200,191.417221 177.244278,180.801605 
	C175.755142,179.346466 173.881943,178.284409 172.186539,177.040375 
	C178.182922,172.641922 184.179306,168.243469 190.540070,163.794891 
z"/>
<path fill="#FB2283" opacity="1.000000" stroke="none" 
	d="
M337.959473,340.901581 
	C332.556519,344.271240 327.153595,347.640930 321.313171,350.680878 
	C319.655334,348.805573 318.569794,347.126404 317.192657,345.736084 
	C308.299713,336.757874 299.303741,327.881378 290.446442,318.868439 
	C288.990784,317.387207 288.052521,315.397522 287.094727,313.396820 
	C291.765778,310.058624 296.217224,306.966400 300.981995,304.038544 
	C313.516754,316.435791 325.738098,328.668701 337.959473,340.901581 
z"/>
<path fill="#DD189D" opacity="1.000000" stroke="none" 
	d="
M249.095184,193.339096 
	C247.931595,191.594254 247.005264,189.617523 245.564545,188.143555 
	C238.174881,180.583420 230.610779,173.193863 223.216156,165.638474 
	C221.895538,164.289139 221.085266,162.440292 220.019241,160.468506 
	C228.691040,160.063705 237.382919,160.012497 246.537964,160.038788 
	C248.134232,161.710999 249.075668,163.494736 250.431595,164.869720 
	C259.081329,173.641129 267.865265,182.280396 276.491119,191.074936 
	C277.931946,192.543930 278.816406,194.558594 279.583008,196.667969 
	C269.446594,193.526993 259.388214,192.471802 249.095184,193.339096 
z"/>
<path fill="#FB2283" opacity="1.000000" stroke="none" 
	d="
M171.893097,177.216858 
	C173.881943,178.284409 175.755142,179.346466 177.244278,180.801605 
	C188.108200,191.417221 198.894913,202.111862 209.788940,213.359787 
	C206.585724,218.291779 203.299576,222.645538 199.675751,226.933960 
	C197.803146,225.656799 196.135361,224.579056 194.754807,223.211380 
	C185.721970,214.262634 176.782593,205.219391 167.726395,196.294571 
	C166.369415,194.957291 164.560242,194.078842 162.960236,192.988159 
	C165.840042,187.789886 168.719849,182.591629 171.893097,177.216858 
z"/>
<path fill="#F31F8B" opacity="1.000000" stroke="none" 
	d="
M338.272125,340.786133 
	C325.738098,328.668701 313.516754,316.435791 301.145752,303.737488 
	C304.662415,298.842773 308.328674,294.413483 312.164307,290.271179 
	C322.817261,301.126984 333.248169,311.749237 343.846649,322.201599 
	C345.280426,323.615601 347.555328,324.176727 349.440765,325.132782 
	C345.822113,330.312103 342.203461,335.491394 338.272125,340.786133 
z"/>
<path fill="#EB1C91" opacity="1.000000" stroke="none" 
	d="
M349.664673,324.864838 
	C347.555328,324.176727 345.280426,323.615601 343.846649,322.201599 
	C333.248169,311.749237 322.817261,301.126984 312.226196,289.924225 
	C314.243164,284.474335 316.367584,279.658386 318.820831,274.998962 
	C328.795532,284.632599 338.393036,294.159973 348.136414,303.535767 
	C349.698181,305.038605 351.912231,305.863617 353.824738,307.002014 
	C352.512695,312.866974 351.200653,318.731934 349.664673,324.864838 
z"/>
<path fill="#E31998" opacity="1.000000" stroke="none" 
	d="
M353.903473,306.539001 
	C351.912231,305.863617 349.698181,305.038605 348.136414,303.535767 
	C338.393036,294.159973 328.795532,284.632599 318.896454,274.587097 
	C319.468414,268.012115 320.293640,262.005463 321.457855,256.066254 
	C323.798065,257.522797 326.036316,258.668091 327.759186,260.343414 
	C334.967560,267.352814 341.986481,274.556732 349.162323,281.600189 
	C350.527802,282.940460 352.290009,283.876495 353.869141,284.999054 
	C353.906830,292.024689 353.944519,299.050354 353.903473,306.539001 
z"/>
<path fill="#DB169E" opacity="1.000000" stroke="none" 
	d="
M353.943726,284.535889 
	C352.290009,283.876495 350.527802,282.940460 349.162323,281.600189 
	C341.986481,274.556732 334.967560,267.352814 327.759186,260.343414 
	C326.036316,258.668091 323.798065,257.522797 321.375732,255.642014 
	C319.173431,247.141190 317.392212,239.132080 315.611023,231.122955 
	C317.856567,232.364777 320.499939,233.195312 322.280731,234.917664 
	C331.309357,243.650070 340.097137,252.631012 349.016235,261.477600 
	C350.284515,262.735535 351.809082,263.735077 353.542297,264.926636 
	C353.919128,271.356964 353.968689,277.714844 353.943726,284.535889 
z"/>
<path fill="#FE854C" opacity="1.000000" stroke="none" 
	d="
M160.074066,307.421021 
	C161.247787,307.658508 162.556076,308.126617 163.448059,309.013458 
	C177.411057,322.895874 191.326279,336.826416 205.223984,350.774261 
	C205.902008,351.454742 206.318314,352.396027 206.930222,353.542847 
	C183.099274,354.228180 161.194885,332.773926 160.074066,307.421021 
z"/>
<path fill="#C212B4" opacity="1.000000" stroke="none" 
	d="
M307.998505,160.200699 
	C331.133606,161.289322 349.898560,180.023804 352.221680,197.990524 
	C352.578064,200.746674 353.361084,203.447662 353.553345,206.517609 
	C349.494965,203.795609 345.854919,200.699661 342.156036,197.675674 
	C339.752808,195.710938 337.263855,193.851105 334.790894,191.541656 
	C334.637207,182.533432 331.016174,179.021393 321.977386,178.408691 
	C319.391876,174.963699 316.764374,171.914597 314.284180,168.750031 
	C312.103333,165.967361 310.087311,163.055496 307.998505,160.200699 
z"/>
<path fill="#FE2B7C" opacity="1.000000" stroke="none" 
	d="
M286.875122,313.642822 
	C288.052521,315.397522 288.990784,317.387207 290.446442,318.868439 
	C299.303741,327.881378 308.299713,336.757874 317.192657,345.736084 
	C318.569794,347.126404 319.655334,348.805573 320.942749,350.689697 
	C316.948273,352.006165 312.886719,352.984131 308.340637,353.575562 
	C306.725861,351.780334 305.711395,350.256805 304.446747,348.981384 
	C296.029510,340.492126 287.504974,332.108368 279.157928,323.551208 
	C277.752869,322.110779 277.039337,319.995758 276.341003,318.036621 
	C280.075531,316.468170 283.475311,315.055481 286.875122,313.642822 
z"/>
<path fill="#FE446E" opacity="1.000000" stroke="none" 
	d="
M160.085175,235.998825 
	C160.029770,230.639801 159.974365,225.280777 160.332306,219.531219 
	C162.160294,220.257492 163.695663,221.252121 164.969574,222.511276 
	C172.165665,229.623993 179.202988,236.900711 186.517990,243.887451 
	C188.464600,245.746704 191.197128,246.783081 193.580063,248.653503 
	C193.509445,254.381454 193.427612,259.653137 192.985306,264.888885 
	C191.055130,263.708466 189.313919,262.738312 187.944244,261.390564 
	C180.413376,253.980209 173.033875,246.415115 165.448700,239.061691 
	C164.016815,237.673569 161.890854,237.001373 160.085175,235.998825 
z"/>
<path fill="#FE3675" opacity="1.000000" stroke="none" 
	d="
M193.568832,248.197250 
	C191.197128,246.783081 188.464600,245.746704 186.517990,243.887451 
	C179.202988,236.900711 172.165665,229.623993 164.969574,222.511276 
	C163.695663,221.252121 162.160294,220.257492 160.415283,219.069931 
	C160.073547,214.302658 160.062180,209.606155 160.468506,204.531281 
	C162.287415,205.298721 163.794113,206.338272 165.072876,207.607468 
	C173.801453,216.270782 182.450348,225.014633 191.211334,233.644791 
	C192.579147,234.992203 194.386932,235.892975 195.994019,237.393463 
	C195.187439,241.256836 194.378143,244.727051 193.568832,248.197250 
z"/>
<path fill="#FE5166" opacity="1.000000" stroke="none" 
	d="
M160.003601,236.455948 
	C161.890854,237.001373 164.016815,237.673569 165.448700,239.061691 
	C173.033875,246.415115 180.413376,253.980209 187.944244,261.390564 
	C189.313919,262.738312 191.055130,263.708466 193.160004,265.220642 
	C195.160797,271.392548 196.626419,277.196777 198.092041,283.001007 
	C195.508316,281.281067 192.594788,279.902466 190.399109,277.780945 
	C181.806808,269.478882 173.459702,260.923492 164.971664,252.512558 
	C163.698837,251.251312 162.160660,250.257828 160.414764,249.069885 
	C160.030212,244.970551 159.976105,240.941818 160.003601,236.455948 
z"/>
<path fill="#FE2B7C" opacity="1.000000" stroke="none" 
	d="
M195.991272,237.000275 
	C194.386932,235.892975 192.579147,234.992203 191.211334,233.644791 
	C182.450348,225.014633 173.801453,216.270782 165.072876,207.607468 
	C163.794113,206.338272 162.287415,205.298721 160.567566,204.074051 
	C160.984802,200.510300 161.720673,197.025391 162.708389,193.264328 
	C164.560242,194.078842 166.369415,194.957291 167.726395,196.294571 
	C176.782593,205.219391 185.721970,214.262634 194.754807,223.211380 
	C196.135361,224.579056 197.803146,225.656799 199.704987,227.299026 
	C198.711685,230.819702 197.351486,233.909988 195.991272,237.000275 
z"/>
<path fill="#FE4A6A" opacity="1.000000" stroke="none" 
	d="
M267.465637,353.990051 
	C265.883606,352.318695 264.953339,350.532349 263.601990,349.160797 
	C255.208862,340.642365 246.656662,332.279755 238.324570,323.702881 
	C236.822647,322.156860 236.097412,319.856293 235.385773,317.559204 
	C240.838837,318.459625 245.919724,319.704926 251.064392,321.290405 
	C252.221008,323.055695 253.177414,324.615509 254.429230,325.883728 
	C261.525238,333.072571 268.772186,340.114319 275.778473,347.388397 
	C277.542694,349.220062 278.613495,351.719635 280.002930,353.912292 
	C275.976196,353.963806 271.949463,354.015320 267.465637,353.990051 
z"/>
<path fill="#C812AE" opacity="1.000000" stroke="none" 
	d="
M334.813293,191.944244 
	C337.263855,193.851105 339.752808,195.710938 342.156036,197.675674 
	C345.854919,200.699661 349.494965,203.795609 353.495087,206.930450 
	C353.893127,214.024063 353.956055,221.048279 353.944458,228.535828 
	C352.641357,228.226593 351.224609,227.645203 350.214417,226.650818 
	C342.935211,219.485352 335.703369,212.270477 328.552521,204.977158 
	C327.461884,203.864792 326.866791,202.266510 326.355286,200.413025 
	C329.383118,197.270111 332.098206,194.607178 334.813293,191.944244 
z"/>
<path fill="#FE3675" opacity="1.000000" stroke="none" 
	d="
M276.006287,318.192413 
	C277.039337,319.995758 277.752869,322.110779 279.157928,323.551208 
	C287.504974,332.108368 296.029510,340.492126 304.446747,348.981384 
	C305.711395,350.256805 306.725861,351.780334 307.931427,353.514099 
	C303.313416,353.915527 298.620087,353.991913 293.445679,353.635040 
	C291.914856,351.573029 291.103577,349.710968 289.775848,348.354218 
	C282.338776,340.754517 274.738098,333.314941 267.293762,325.722198 
	C265.953674,324.355347 265.082092,322.529205 264.323853,320.712097 
	C268.437744,319.736847 272.222015,318.964630 276.006287,318.192413 
z"/>
<path fill="#C812AE" opacity="1.000000" stroke="none" 
	d="
M307.536346,160.118546 
	C310.087311,163.055496 312.103333,165.967361 314.284180,168.750031 
	C316.764374,171.914597 319.391876,174.963699 321.639038,178.534821 
	C318.627625,181.695969 315.932465,184.385330 313.237305,187.074677 
	C312.610626,186.878738 311.793304,186.871399 311.385406,186.459030 
	C302.943542,177.924515 294.548187,169.343964 286.071716,160.444199 
	C293.024597,160.089371 300.049408,160.062881 307.536346,160.118546 
z"/>
<path fill="#FE446E" opacity="1.000000" stroke="none" 
	d="
M263.994202,320.915100 
	C265.082092,322.529205 265.953674,324.355347 267.293762,325.722198 
	C274.738098,333.314941 282.338776,340.754517 289.775848,348.354218 
	C291.103577,349.710968 291.914856,351.573029 292.985504,353.557068 
	C288.976715,353.965240 284.946991,354.018127 280.460114,353.991638 
	C278.613495,351.719635 277.542694,349.220062 275.778473,347.388397 
	C268.772186,340.114319 261.525238,333.072571 254.429230,325.883728 
	C253.177414,324.615509 252.221008,323.055695 251.524139,321.228241 
	C255.944794,320.855682 259.969482,320.885406 263.994202,320.915100 
z"/>
<path fill="#FFFDFE" opacity="1.000000" stroke="none" 
	d="
M264.323853,320.712097 
	C259.969482,320.885406 255.944794,320.855682 251.460358,320.888123 
	C245.919724,319.704926 240.838837,318.459625 235.380249,317.191101 
	C218.534531,310.628357 206.686691,299.068695 198.285324,283.277588 
	C196.626419,277.196777 195.160797,271.392548 193.520477,265.256592 
	C193.427612,259.653137 193.509445,254.381454 193.580063,248.653503 
	C194.378143,244.727051 195.187439,241.256836 195.994019,237.393463 
	C197.351486,233.909988 198.711685,230.819702 200.042664,227.364349 
	C203.299576,222.645538 206.585724,218.291779 210.000046,213.639328 
	C214.984619,209.520676 219.841019,205.700699 224.921707,201.647049 
	C232.906815,198.839859 240.667648,196.266357 248.761826,193.515976 
	C259.388214,192.471802 269.446594,193.526993 279.597656,197.032043 
	C295.680603,204.085495 307.875580,214.785873 315.385193,230.876556 
	C317.392212,239.132080 319.173431,247.141190 321.036743,255.574554 
	C320.293640,262.005463 319.468414,268.012115 318.567596,274.430603 
	C316.367584,279.658386 314.243164,284.474335 312.056854,289.637207 
	C308.328674,294.413483 304.662415,298.842773 300.832397,303.573120 
	C296.217224,306.966400 291.765778,310.058624 287.094727,313.396820 
	C283.475311,315.055481 280.075531,316.468170 276.341003,318.036621 
	C272.222015,318.964630 268.437744,319.736847 264.323853,320.712097 
M246.204025,219.883484 
	C238.827057,221.995499 232.506989,225.721771 227.217773,232.235077 
	C222.717896,238.085480 219.069626,244.295059 218.503510,252.674805 
	C218.664841,256.642273 218.381271,260.687927 219.062286,264.564087 
	C222.546692,284.396027 243.680023,299.303101 262.842896,295.160339 
	C270.164612,294.120575 276.727112,291.455475 282.698547,285.913513 
	C288.335449,280.727478 292.657959,274.748627 294.561646,266.409790 
	C294.904572,264.617828 295.330963,262.837280 295.577942,261.032196 
	C299.183624,234.680481 271.854187,211.561371 246.204025,219.883484 
z"/>
<path fill="#FFFDFE" opacity="1.000000" stroke="none" 
	d="
M313.258484,187.473495 
	C315.932465,184.385330 318.627625,181.695969 321.661133,178.880493 
	C331.016174,179.021393 334.637207,182.533432 334.790894,191.541656 
	C332.098206,194.607178 329.383118,197.270111 326.334106,200.064178 
	C317.066223,199.809799 313.592804,196.444901 313.258484,187.473495 
z"/>
<path fill="#FB2283" opacity="1.000000" stroke="none" 
	d="
M218.894638,251.969528 
	C219.069626,244.295059 222.717896,238.085480 227.862946,232.154022 
	C229.590729,232.802322 230.825241,233.379181 231.733398,234.283691 
	C247.690659,250.177475 263.624207,266.095245 279.499481,282.070831 
	C280.609863,283.188232 281.224579,284.798157 282.069794,286.179047 
	C276.727112,291.455475 270.164612,294.120575 262.367035,294.784424 
	C261.381287,293.567932 261.014343,292.585144 260.340332,291.907898 
	C247.688492,279.195740 235.015732,266.504181 222.286240,253.869888 
	C221.400009,252.990280 220.036301,252.591766 218.894638,251.969528 
z"/>
<path fill="#F21E8B" opacity="1.000000" stroke="none" 
	d="
M282.384155,286.046265 
	C281.224579,284.798157 280.609863,283.188232 279.499481,282.070831 
	C263.624207,266.095245 247.690659,250.177475 231.733398,234.283691 
	C230.825241,233.379181 229.590729,232.802322 228.158951,231.999847 
	C232.506989,225.721771 238.827057,221.995499 246.654663,220.233215 
	C247.730881,221.546356 248.210602,222.654984 249.003708,223.451614 
	C262.747620,237.256744 276.513916,251.039780 290.337555,264.764954 
	C291.344482,265.764679 292.828369,266.283997 294.090515,267.026672 
	C292.657959,274.748627 288.335449,280.727478 282.384155,286.046265 
z"/>
<path fill="#E91E94" opacity="1.000000" stroke="none" 
	d="
M294.326080,266.718231 
	C292.828369,266.283997 291.344482,265.764679 290.337555,264.764954 
	C276.513916,251.039780 262.747620,237.256744 249.003708,223.451614 
	C248.210602,222.654984 247.730881,221.546356 247.037048,220.239227 
	C271.854187,211.561371 299.183624,234.680481 295.577942,261.032196 
	C295.330963,262.837280 294.904572,264.617828 294.326080,266.718231 
z"/>
<path fill="#FE327B" opacity="1.000000" stroke="none" 
	d="
M218.699066,252.322174 
	C220.036301,252.591766 221.400009,252.990280 222.286240,253.869888 
	C235.015732,266.504181 247.688492,279.195740 260.340332,291.907898 
	C261.014343,292.585144 261.381287,293.567932 261.959839,294.751373 
	C243.680023,299.303101 222.546692,284.396027 219.062286,264.564087 
	C218.381271,260.687927 218.664841,256.642273 218.699066,252.322174 
z"/>
</svg>