<svg version="1.1" id="Layer_1" xmlns="http://www.w3.org/2000/svg" xmlns:xlink="http://www.w3.org/1999/xlink" x="0px" y="0px"
	 width="100%" viewBox="0 0 512 512" enable-background="new 0 0 512 512" xml:space="preserve">
<path fill="#000000" opacity="1.000000" stroke="none" 
	d="
M191.000000,513.000000 
	C127.695526,513.000000 64.391045,513.000000 1.043284,513.000000 
	C1.043284,342.439972 1.043284,171.879898 1.043284,1.000000 
	C85.687828,1.000000 170.376068,1.000000 255.863449,1.392224 
	C256.441437,3.220417 256.033173,4.655450 256.025970,6.092489 
	C255.660538,79.136482 255.270142,152.180450 255.018341,225.224869 
	C254.884552,264.033173 255.108932,302.843018 254.874557,341.650360 
	C254.840805,347.240479 253.712601,352.993347 252.102036,358.374939 
	C245.485535,380.483826 230.985840,395.800598 209.843048,404.490723 
	C196.537018,409.959778 182.518661,411.987579 168.333710,407.925903 
	C160.818634,405.774078 153.533127,402.820587 146.111954,399.952728 
	C146.066498,399.491516 146.053040,399.306580 145.957397,398.771027 
	C135.231750,382.204376 132.535721,364.514221 136.686066,345.799896 
	C139.894669,331.332031 147.255005,319.177582 158.309479,309.177521 
	C175.135864,293.956116 194.605270,287.601227 217.125732,290.943024 
	C221.265076,291.557312 225.388092,292.281647 229.769318,292.996094 
	C229.769318,265.875488 229.769318,239.136887 229.769318,211.796249 
	C221.760895,211.206421 213.930908,210.629730 206.056396,209.582977 
	C206.011887,202.483734 206.011887,195.854568 206.011887,188.866211 
	C198.084457,188.219925 190.590424,187.121170 183.098969,187.138428 
	C175.923141,187.154968 168.751724,188.349747 161.575302,188.992508 
	C147.082352,190.290588 133.347031,194.590408 120.201607,200.466873 
	C98.746773,210.057953 79.892303,223.468994 65.488289,242.228210 
	C58.021004,251.953308 50.538567,262.035889 45.291740,273.021423 
	C33.721436,297.246765 28.146200,322.896820 30.862127,350.089111 
	C32.063271,362.115173 33.977875,373.882843 37.753319,385.328613 
	C45.979187,410.266510 60.015709,431.516907 79.057091,449.483368 
	C81.713646,451.989929 84.998451,453.830658 88.136490,456.254150 
	C89.185120,457.347198 90.089699,458.165741 91.048050,459.256836 
	C91.412346,459.706268 91.722862,459.883057 92.011444,460.034363 
	C91.989502,460.008911 91.940193,459.963196 92.011368,460.237061 
	C92.397530,460.693726 92.712517,460.876465 93.008469,461.040833 
	C92.989433,461.022461 92.939636,461.004486 92.972824,461.355804 
	C99.452667,467.758484 105.507759,474.304962 112.418068,479.770081 
	C134.794510,497.466858 160.173126,508.165649 188.698563,511.083313 
	C189.522430,511.167572 190.235336,512.336731 191.000000,513.000000 
z"/>
<path fill="#000000" opacity="1.000000" stroke="none" 
	d="
M335.000000,1.000000 
	C394.306915,1.000000 453.613800,1.000000 512.960327,1.000000 
	C512.960327,171.564224 512.960327,342.128448 512.960327,513.000000 
	C416.978790,513.000000 320.957245,513.000000 224.302673,512.591919 
	C226.941589,511.465485 230.189850,510.606659 233.489182,510.050812 
	C260.968903,505.421112 285.266327,494.202911 306.582916,476.092529 
	C321.442200,463.468170 333.562225,448.765167 342.631592,431.656036 
	C354.487976,409.289185 360.316193,385.302643 359.989044,359.925140 
	C359.721527,339.172089 359.138672,318.421478 359.046082,297.668213 
	C358.887085,262.026917 358.999054,226.384415 359.009521,190.742416 
	C359.009918,189.360382 359.137115,187.978378 359.229370,186.106903 
	C395.955048,212.404099 435.890839,226.645660 480.744049,226.075684 
	C480.744049,199.290176 480.744049,173.366455 480.744049,147.511856 
	C473.004791,146.670303 465.528595,145.857346 458.028137,145.021423 
	C458.003845,144.998444 457.954254,144.953659 457.976288,144.488464 
	C457.998322,137.100433 457.998322,130.177612 457.998322,123.843170 
	C449.757843,122.842972 442.090851,122.267754 434.562714,120.917969 
	C422.304230,118.720039 410.628082,114.717491 399.783966,108.403893 
	C395.656555,106.000885 391.234222,104.104431 386.965210,101.996674 
	C386.984100,102.016235 387.022797,102.054466 387.336487,101.793884 
	C386.819244,101.041840 385.988342,100.550369 384.866211,99.916817 
	C384.028442,99.126648 383.481934,98.478561 382.945007,97.478882 
	C367.523773,75.671883 359.788788,51.580254 358.836700,25.025206 
	C351.582214,25.025206 344.801636,25.025206 338.003418,25.003942 
	C337.985748,24.982679 337.947815,24.942497 337.962708,24.531433 
	C336.985077,16.413580 335.992523,8.706791 335.000000,1.000000 
z"/>
<path fill="#EF0044" opacity="1.000000" stroke="none" 
	d="
M458.052399,145.044388 
	C465.528595,145.857346 473.004791,146.670303 480.744049,147.511856 
	C480.744049,173.366455 480.744049,199.290176 480.744049,226.075684 
	C435.890839,226.645660 395.955048,212.404099 359.229370,186.106903 
	C359.137115,187.978378 359.009918,189.360382 359.009521,190.742416 
	C358.999054,226.384415 358.887085,262.026917 359.046082,297.668213 
	C359.138672,318.421478 359.721527,339.172089 359.989044,359.925140 
	C360.316193,385.302643 354.487976,409.289185 342.631592,431.656036 
	C333.562225,448.765167 321.442200,463.468170 306.582916,476.092529 
	C285.266327,494.202911 260.968903,505.421112 233.489182,510.050812 
	C230.189850,510.606659 226.941589,511.465485 223.834839,512.591919 
	C213.312439,513.000000 202.624878,513.000000 191.468658,513.000000 
	C190.235336,512.336731 189.522430,511.167572 188.698563,511.083313 
	C160.173126,508.165649 134.794510,497.466858 112.418068,479.770081 
	C105.507759,474.304962 99.452667,467.758484 93.248764,461.043884 
	C94.496346,460.969818 95.535385,461.507904 96.500984,462.155548 
	C129.949097,484.589996 166.626099,493.220703 206.439850,487.033264 
	C253.830246,479.668427 289.873016,454.867065 314.765503,414.103455 
	C329.494720,389.983154 335.638062,363.399109 335.491974,335.182953 
	C335.202301,279.223022 335.150360,223.261856 335.000946,167.301208 
	C334.996399,165.597580 335.000366,163.893921 335.000366,161.338226 
	C372.035645,188.845093 412.524384,202.608475 458.052399,203.097626 
	C458.052399,183.284744 458.052399,164.164566 458.052399,145.044388 
z"/>
<path fill="#08FFF9" opacity="1.000000" stroke="none" 
	d="
M334.531342,1.000000 
	C335.992523,8.706791 336.985077,16.413580 337.498413,24.565239 
	C318.098450,25.010109 299.177673,25.010109 280.000305,25.010109 
	C280.000305,27.389437 280.000580,29.197332 280.000244,31.005228 
	C279.979889,139.938065 280.008698,248.870987 279.827759,357.803558 
	C279.815765,365.032837 279.168518,372.536621 277.176971,379.439636 
	C268.314850,410.157379 247.391022,428.377228 216.037933,432.398132 
	C186.789917,436.149139 163.130951,424.672363 146.143967,400.229004 
	C153.533127,402.820587 160.818634,405.774078 168.333710,407.925903 
	C182.518661,411.987579 196.537018,409.959778 209.843048,404.490723 
	C230.985840,395.800598 245.485535,380.483826 252.102036,358.374939 
	C253.712601,352.993347 254.840805,347.240479 254.874557,341.650360 
	C255.108932,302.843018 254.884552,264.033173 255.018341,225.224869 
	C255.270142,152.180450 255.660538,79.136482 256.025970,6.092489 
	C256.033173,4.655450 256.441437,3.220417 256.331299,1.392224 
	C282.020905,1.000000 308.041779,1.000000 334.531342,1.000000 
z"/>
<path fill="#000000" opacity="1.000000" stroke="none" 
	d="
M146.111954,399.952728 
	C163.130951,424.672363 186.789917,436.149139 216.037933,432.398132 
	C247.391022,428.377228 268.314850,410.157379 277.176971,379.439636 
	C279.168518,372.536621 279.815765,365.032837 279.827759,357.803558 
	C280.008698,248.870987 279.979889,139.938065 280.000244,31.005228 
	C280.000580,29.197332 280.000305,27.389437 280.000305,25.010109 
	C299.177673,25.010109 318.098450,25.010109 337.483521,24.976303 
	C337.947815,24.942497 337.985748,24.982679 337.893616,25.409437 
	C339.569275,32.201530 340.822845,38.766144 343.198120,44.896103 
	C351.459747,66.217033 364.263885,84.259727 382.935394,97.830475 
	C383.481934,98.478561 384.028442,99.126648 384.895203,100.223274 
	C385.817871,101.132698 386.420349,101.593582 387.022797,102.054466 
	C387.022797,102.054466 386.984100,102.016235 386.948151,102.346283 
	C405.593414,125.169785 429.137634,139.491516 457.954254,144.953659 
	C457.954254,144.953659 458.003845,144.998444 458.028137,145.021423 
	C458.052399,164.164566 458.052399,183.284744 458.052399,203.097626 
	C412.524384,202.608475 372.035645,188.845093 335.000366,161.338226 
	C335.000366,163.893921 334.996399,165.597580 335.000946,167.301208 
	C335.150360,223.261856 335.202301,279.223022 335.491974,335.182953 
	C335.638062,363.399109 329.494720,389.983154 314.765503,414.103455 
	C289.873016,454.867065 253.830246,479.668427 206.439850,487.033264 
	C166.626099,493.220703 129.949097,484.589996 96.500984,462.155548 
	C95.535385,461.507904 94.496346,460.969818 93.215584,460.692566 
	C92.939636,461.004486 92.989433,461.022461 93.180496,460.669495 
	C92.894447,460.198730 92.417320,460.080963 91.940193,459.963196 
	C91.940193,459.963196 91.989502,460.008911 92.113678,459.704041 
	C91.823318,459.260864 91.408798,459.122559 90.994278,458.984253 
	C90.089699,458.165741 89.185120,457.347198 88.107101,455.911133 
	C87.350258,454.485260 86.777664,453.668854 86.181900,452.869690 
	C53.199520,408.627899 45.761177,360.215363 64.534294,308.551971 
	C85.061378,252.061676 140.859726,210.814804 205.901413,211.262283 
	C205.970078,231.027634 205.970078,250.314835 205.970078,269.913940 
	C193.443588,266.378906 181.198563,265.614105 168.704498,267.903717 
	C116.846855,277.407074 92.788498,339.771118 125.085846,381.393005 
	C130.776031,388.726044 136.989151,395.657318 146.039597,399.121643 
	C146.053040,399.306580 146.066498,399.491516 146.111954,399.952728 
z"/>
<path fill="#08FEF8" opacity="1.000000" stroke="none" 
	d="
M205.832748,210.784119 
	C140.859726,210.814804 85.061378,252.061676 64.534294,308.551971 
	C45.761177,360.215363 53.199520,408.627899 86.181900,452.869690 
	C86.777664,453.668854 87.350258,454.485260 87.963043,455.636597 
	C84.998451,453.830658 81.713646,451.989929 79.057091,449.483368 
	C60.015709,431.516907 45.979187,410.266510 37.753319,385.328613 
	C33.977875,373.882843 32.063271,362.115173 30.862127,350.089111 
	C28.146200,322.896820 33.721436,297.246765 45.291740,273.021423 
	C50.538567,262.035889 58.021004,251.953308 65.488289,242.228210 
	C79.892303,223.468994 98.746773,210.057953 120.201607,200.466873 
	C133.347031,194.590408 147.082352,190.290588 161.575302,188.992508 
	C168.751724,188.349747 175.923141,187.154968 183.098969,187.138428 
	C190.590424,187.121170 198.084457,188.219925 206.011887,188.866211 
	C206.011887,195.854568 206.011887,202.483734 205.961380,209.755493 
	C205.910873,210.398056 205.832748,210.784119 205.832748,210.784119 
z"/>
<path fill="#EF0044" opacity="1.000000" stroke="none" 
	d="
M205.901413,211.262283 
	C205.832748,210.784119 205.910873,210.398056 206.005890,210.225540 
	C213.930908,210.629730 221.760895,211.206421 229.769318,211.796249 
	C229.769318,239.136887 229.769318,265.875488 229.769318,292.996094 
	C225.388092,292.281647 221.265076,291.557312 217.125732,290.943024 
	C194.605270,287.601227 175.135864,293.956116 158.309479,309.177521 
	C147.255005,319.177582 139.894669,331.332031 136.686066,345.799896 
	C132.535721,364.514221 135.231750,382.204376 145.957397,398.771027 
	C136.989151,395.657318 130.776031,388.726044 125.085846,381.393005 
	C92.788498,339.771118 116.846855,277.407074 168.704498,267.903717 
	C181.198563,265.614105 193.443588,266.378906 205.970078,269.913940 
	C205.970078,250.314835 205.970078,231.027634 205.901413,211.262283 
z"/>
<path fill="#EF0044" opacity="1.000000" stroke="none" 
	d="
M91.048058,459.256836 
	C91.408798,459.122559 91.823318,459.260864 92.135612,459.729523 
	C91.722862,459.883057 91.412346,459.706268 91.048058,459.256836 
z"/>
<path fill="#EF0044" opacity="1.000000" stroke="none" 
	d="
M92.011368,460.237061 
	C92.417320,460.080963 92.894447,460.198730 93.199539,460.687866 
	C92.712517,460.876465 92.397530,460.693726 92.011368,460.237061 
z"/>
<path fill="#08FDF7" opacity="1.000000" stroke="none" 
	d="
M457.976288,144.488464 
	C429.137634,139.491516 405.593414,125.169785 386.929260,102.326721 
	C391.234222,104.104431 395.656555,106.000885 399.783966,108.403893 
	C410.628082,114.717491 422.304230,118.720039 434.562714,120.917969 
	C442.090851,122.267754 449.757843,122.842972 457.998322,123.843170 
	C457.998322,130.177612 457.998322,137.100433 457.976288,144.488464 
z"/>
<path fill="#EE0043" opacity="1.000000" stroke="none" 
	d="
M382.945007,97.478882 
	C364.263885,84.259727 351.459747,66.217033 343.198120,44.896103 
	C340.822845,38.766144 339.569275,32.201530 337.911255,25.430700 
	C344.801636,25.025206 351.582214,25.025206 358.836700,25.025206 
	C359.788788,51.580254 367.523773,75.671883 382.945007,97.478882 
z"/>
<path fill="#08FDF7" opacity="1.000000" stroke="none" 
	d="
M387.336487,101.793884 
	C386.420349,101.593582 385.817871,101.132698 385.186401,100.365356 
	C385.988342,100.550369 386.819244,101.041840 387.336487,101.793884 
z"/>
</svg>